G04 #@! TF.GenerationSoftware,KiCad,Pcbnew,7.0.8*
G04 #@! TF.CreationDate,2024-03-04T19:11:00+02:00*
G04 #@! TF.ProjectId,radofin,7261646f-6669-46e2-9e6b-696361645f70,rev?*
G04 #@! TF.SameCoordinates,Original*
G04 #@! TF.FileFunction,Legend,Bot*
G04 #@! TF.FilePolarity,Positive*
%FSLAX46Y46*%
G04 Gerber Fmt 4.6, Leading zero omitted, Abs format (unit mm)*
G04 Created by KiCad (PCBNEW 7.0.8) date 2024-03-04 19:11:00*
%MOMM*%
%LPD*%
G01*
G04 APERTURE LIST*
%ADD10C,0.300000*%
G04 APERTURE END LIST*
D10*
X147293035Y-114386776D02*
X148007321Y-114886776D01*
X147293035Y-115243919D02*
X148793035Y-115243919D01*
X148793035Y-115243919D02*
X148793035Y-114672490D01*
X148793035Y-114672490D02*
X148721606Y-114529633D01*
X148721606Y-114529633D02*
X148650178Y-114458204D01*
X148650178Y-114458204D02*
X148507321Y-114386776D01*
X148507321Y-114386776D02*
X148293035Y-114386776D01*
X148293035Y-114386776D02*
X148150178Y-114458204D01*
X148150178Y-114458204D02*
X148078749Y-114529633D01*
X148078749Y-114529633D02*
X148007321Y-114672490D01*
X148007321Y-114672490D02*
X148007321Y-115243919D01*
X147293035Y-113101062D02*
X148078749Y-113101062D01*
X148078749Y-113101062D02*
X148221606Y-113172490D01*
X148221606Y-113172490D02*
X148293035Y-113315347D01*
X148293035Y-113315347D02*
X148293035Y-113601062D01*
X148293035Y-113601062D02*
X148221606Y-113743919D01*
X147364464Y-113101062D02*
X147293035Y-113243919D01*
X147293035Y-113243919D02*
X147293035Y-113601062D01*
X147293035Y-113601062D02*
X147364464Y-113743919D01*
X147364464Y-113743919D02*
X147507321Y-113815347D01*
X147507321Y-113815347D02*
X147650178Y-113815347D01*
X147650178Y-113815347D02*
X147793035Y-113743919D01*
X147793035Y-113743919D02*
X147864464Y-113601062D01*
X147864464Y-113601062D02*
X147864464Y-113243919D01*
X147864464Y-113243919D02*
X147935892Y-113101062D01*
X147293035Y-111743919D02*
X148793035Y-111743919D01*
X147364464Y-111743919D02*
X147293035Y-111886776D01*
X147293035Y-111886776D02*
X147293035Y-112172490D01*
X147293035Y-112172490D02*
X147364464Y-112315347D01*
X147364464Y-112315347D02*
X147435892Y-112386776D01*
X147435892Y-112386776D02*
X147578749Y-112458204D01*
X147578749Y-112458204D02*
X148007321Y-112458204D01*
X148007321Y-112458204D02*
X148150178Y-112386776D01*
X148150178Y-112386776D02*
X148221606Y-112315347D01*
X148221606Y-112315347D02*
X148293035Y-112172490D01*
X148293035Y-112172490D02*
X148293035Y-111886776D01*
X148293035Y-111886776D02*
X148221606Y-111743919D01*
X147293035Y-110815347D02*
X147364464Y-110958204D01*
X147364464Y-110958204D02*
X147435892Y-111029633D01*
X147435892Y-111029633D02*
X147578749Y-111101061D01*
X147578749Y-111101061D02*
X148007321Y-111101061D01*
X148007321Y-111101061D02*
X148150178Y-111029633D01*
X148150178Y-111029633D02*
X148221606Y-110958204D01*
X148221606Y-110958204D02*
X148293035Y-110815347D01*
X148293035Y-110815347D02*
X148293035Y-110601061D01*
X148293035Y-110601061D02*
X148221606Y-110458204D01*
X148221606Y-110458204D02*
X148150178Y-110386776D01*
X148150178Y-110386776D02*
X148007321Y-110315347D01*
X148007321Y-110315347D02*
X147578749Y-110315347D01*
X147578749Y-110315347D02*
X147435892Y-110386776D01*
X147435892Y-110386776D02*
X147364464Y-110458204D01*
X147364464Y-110458204D02*
X147293035Y-110601061D01*
X147293035Y-110601061D02*
X147293035Y-110815347D01*
X148293035Y-109886775D02*
X148293035Y-109315347D01*
X147293035Y-109672490D02*
X148578749Y-109672490D01*
X148578749Y-109672490D02*
X148721606Y-109601061D01*
X148721606Y-109601061D02*
X148793035Y-109458204D01*
X148793035Y-109458204D02*
X148793035Y-109315347D01*
X147293035Y-108815347D02*
X148293035Y-108815347D01*
X148793035Y-108815347D02*
X148721606Y-108886775D01*
X148721606Y-108886775D02*
X148650178Y-108815347D01*
X148650178Y-108815347D02*
X148721606Y-108743918D01*
X148721606Y-108743918D02*
X148793035Y-108815347D01*
X148793035Y-108815347D02*
X148650178Y-108815347D01*
X148293035Y-108101061D02*
X147293035Y-108101061D01*
X148150178Y-108101061D02*
X148221606Y-108029632D01*
X148221606Y-108029632D02*
X148293035Y-107886775D01*
X148293035Y-107886775D02*
X148293035Y-107672489D01*
X148293035Y-107672489D02*
X148221606Y-107529632D01*
X148221606Y-107529632D02*
X148078749Y-107458204D01*
X148078749Y-107458204D02*
X147293035Y-107458204D01*
X147293035Y-104815346D02*
X147293035Y-105672489D01*
X147293035Y-105243918D02*
X148793035Y-105243918D01*
X148793035Y-105243918D02*
X148578749Y-105386775D01*
X148578749Y-105386775D02*
X148435892Y-105529632D01*
X148435892Y-105529632D02*
X148364464Y-105672489D01*
X148793035Y-104315347D02*
X148793035Y-103386775D01*
X148793035Y-103386775D02*
X148221606Y-103886775D01*
X148221606Y-103886775D02*
X148221606Y-103672490D01*
X148221606Y-103672490D02*
X148150178Y-103529633D01*
X148150178Y-103529633D02*
X148078749Y-103458204D01*
X148078749Y-103458204D02*
X147935892Y-103386775D01*
X147935892Y-103386775D02*
X147578749Y-103386775D01*
X147578749Y-103386775D02*
X147435892Y-103458204D01*
X147435892Y-103458204D02*
X147364464Y-103529633D01*
X147364464Y-103529633D02*
X147293035Y-103672490D01*
X147293035Y-103672490D02*
X147293035Y-104101061D01*
X147293035Y-104101061D02*
X147364464Y-104243918D01*
X147364464Y-104243918D02*
X147435892Y-104315347D01*
X147293035Y-102672490D02*
X147293035Y-102386776D01*
X147293035Y-102386776D02*
X147364464Y-102243919D01*
X147364464Y-102243919D02*
X147435892Y-102172490D01*
X147435892Y-102172490D02*
X147650178Y-102029633D01*
X147650178Y-102029633D02*
X147935892Y-101958204D01*
X147935892Y-101958204D02*
X148507321Y-101958204D01*
X148507321Y-101958204D02*
X148650178Y-102029633D01*
X148650178Y-102029633D02*
X148721606Y-102101062D01*
X148721606Y-102101062D02*
X148793035Y-102243919D01*
X148793035Y-102243919D02*
X148793035Y-102529633D01*
X148793035Y-102529633D02*
X148721606Y-102672490D01*
X148721606Y-102672490D02*
X148650178Y-102743919D01*
X148650178Y-102743919D02*
X148507321Y-102815347D01*
X148507321Y-102815347D02*
X148150178Y-102815347D01*
X148150178Y-102815347D02*
X148007321Y-102743919D01*
X148007321Y-102743919D02*
X147935892Y-102672490D01*
X147935892Y-102672490D02*
X147864464Y-102529633D01*
X147864464Y-102529633D02*
X147864464Y-102243919D01*
X147864464Y-102243919D02*
X147935892Y-102101062D01*
X147935892Y-102101062D02*
X148007321Y-102029633D01*
X148007321Y-102029633D02*
X148150178Y-101958204D01*
X148650178Y-101386776D02*
X148721606Y-101315348D01*
X148721606Y-101315348D02*
X148793035Y-101172491D01*
X148793035Y-101172491D02*
X148793035Y-100815348D01*
X148793035Y-100815348D02*
X148721606Y-100672491D01*
X148721606Y-100672491D02*
X148650178Y-100601062D01*
X148650178Y-100601062D02*
X148507321Y-100529633D01*
X148507321Y-100529633D02*
X148364464Y-100529633D01*
X148364464Y-100529633D02*
X148150178Y-100601062D01*
X148150178Y-100601062D02*
X147293035Y-101458205D01*
X147293035Y-101458205D02*
X147293035Y-100529633D01*
X147435892Y-97886777D02*
X147364464Y-97958205D01*
X147364464Y-97958205D02*
X147293035Y-98172491D01*
X147293035Y-98172491D02*
X147293035Y-98315348D01*
X147293035Y-98315348D02*
X147364464Y-98529634D01*
X147364464Y-98529634D02*
X147507321Y-98672491D01*
X147507321Y-98672491D02*
X147650178Y-98743920D01*
X147650178Y-98743920D02*
X147935892Y-98815348D01*
X147935892Y-98815348D02*
X148150178Y-98815348D01*
X148150178Y-98815348D02*
X148435892Y-98743920D01*
X148435892Y-98743920D02*
X148578749Y-98672491D01*
X148578749Y-98672491D02*
X148721606Y-98529634D01*
X148721606Y-98529634D02*
X148793035Y-98315348D01*
X148793035Y-98315348D02*
X148793035Y-98172491D01*
X148793035Y-98172491D02*
X148721606Y-97958205D01*
X148721606Y-97958205D02*
X148650178Y-97886777D01*
X147293035Y-96601063D02*
X148078749Y-96601063D01*
X148078749Y-96601063D02*
X148221606Y-96672491D01*
X148221606Y-96672491D02*
X148293035Y-96815348D01*
X148293035Y-96815348D02*
X148293035Y-97101063D01*
X148293035Y-97101063D02*
X148221606Y-97243920D01*
X147364464Y-96601063D02*
X147293035Y-96743920D01*
X147293035Y-96743920D02*
X147293035Y-97101063D01*
X147293035Y-97101063D02*
X147364464Y-97243920D01*
X147364464Y-97243920D02*
X147507321Y-97315348D01*
X147507321Y-97315348D02*
X147650178Y-97315348D01*
X147650178Y-97315348D02*
X147793035Y-97243920D01*
X147793035Y-97243920D02*
X147864464Y-97101063D01*
X147864464Y-97101063D02*
X147864464Y-96743920D01*
X147864464Y-96743920D02*
X147935892Y-96601063D01*
X147293035Y-95886777D02*
X148293035Y-95886777D01*
X148007321Y-95886777D02*
X148150178Y-95815348D01*
X148150178Y-95815348D02*
X148221606Y-95743920D01*
X148221606Y-95743920D02*
X148293035Y-95601062D01*
X148293035Y-95601062D02*
X148293035Y-95458205D01*
X148293035Y-95172491D02*
X148293035Y-94601063D01*
X148793035Y-94958206D02*
X147507321Y-94958206D01*
X147507321Y-94958206D02*
X147364464Y-94886777D01*
X147364464Y-94886777D02*
X147293035Y-94743920D01*
X147293035Y-94743920D02*
X147293035Y-94601063D01*
X147293035Y-94101063D02*
X148293035Y-94101063D01*
X148007321Y-94101063D02*
X148150178Y-94029634D01*
X148150178Y-94029634D02*
X148221606Y-93958206D01*
X148221606Y-93958206D02*
X148293035Y-93815348D01*
X148293035Y-93815348D02*
X148293035Y-93672491D01*
X147293035Y-93172492D02*
X148293035Y-93172492D01*
X148793035Y-93172492D02*
X148721606Y-93243920D01*
X148721606Y-93243920D02*
X148650178Y-93172492D01*
X148650178Y-93172492D02*
X148721606Y-93101063D01*
X148721606Y-93101063D02*
X148793035Y-93172492D01*
X148793035Y-93172492D02*
X148650178Y-93172492D01*
X147293035Y-91815349D02*
X148793035Y-91815349D01*
X147364464Y-91815349D02*
X147293035Y-91958206D01*
X147293035Y-91958206D02*
X147293035Y-92243920D01*
X147293035Y-92243920D02*
X147364464Y-92386777D01*
X147364464Y-92386777D02*
X147435892Y-92458206D01*
X147435892Y-92458206D02*
X147578749Y-92529634D01*
X147578749Y-92529634D02*
X148007321Y-92529634D01*
X148007321Y-92529634D02*
X148150178Y-92458206D01*
X148150178Y-92458206D02*
X148221606Y-92386777D01*
X148221606Y-92386777D02*
X148293035Y-92243920D01*
X148293035Y-92243920D02*
X148293035Y-91958206D01*
X148293035Y-91958206D02*
X148221606Y-91815349D01*
X148293035Y-90458206D02*
X147078749Y-90458206D01*
X147078749Y-90458206D02*
X146935892Y-90529634D01*
X146935892Y-90529634D02*
X146864464Y-90601063D01*
X146864464Y-90601063D02*
X146793035Y-90743920D01*
X146793035Y-90743920D02*
X146793035Y-90958206D01*
X146793035Y-90958206D02*
X146864464Y-91101063D01*
X147364464Y-90458206D02*
X147293035Y-90601063D01*
X147293035Y-90601063D02*
X147293035Y-90886777D01*
X147293035Y-90886777D02*
X147364464Y-91029634D01*
X147364464Y-91029634D02*
X147435892Y-91101063D01*
X147435892Y-91101063D02*
X147578749Y-91172491D01*
X147578749Y-91172491D02*
X148007321Y-91172491D01*
X148007321Y-91172491D02*
X148150178Y-91101063D01*
X148150178Y-91101063D02*
X148221606Y-91029634D01*
X148221606Y-91029634D02*
X148293035Y-90886777D01*
X148293035Y-90886777D02*
X148293035Y-90601063D01*
X148293035Y-90601063D02*
X148221606Y-90458206D01*
X147364464Y-89172491D02*
X147293035Y-89315348D01*
X147293035Y-89315348D02*
X147293035Y-89601063D01*
X147293035Y-89601063D02*
X147364464Y-89743920D01*
X147364464Y-89743920D02*
X147507321Y-89815348D01*
X147507321Y-89815348D02*
X148078749Y-89815348D01*
X148078749Y-89815348D02*
X148221606Y-89743920D01*
X148221606Y-89743920D02*
X148293035Y-89601063D01*
X148293035Y-89601063D02*
X148293035Y-89315348D01*
X148293035Y-89315348D02*
X148221606Y-89172491D01*
X148221606Y-89172491D02*
X148078749Y-89101063D01*
X148078749Y-89101063D02*
X147935892Y-89101063D01*
X147935892Y-89101063D02*
X147793035Y-89815348D01*
X143177321Y-114958204D02*
X142463035Y-114958204D01*
X143963035Y-115458204D02*
X143177321Y-114958204D01*
X143177321Y-114958204D02*
X143963035Y-114458204D01*
X143963035Y-113672490D02*
X143963035Y-113386776D01*
X143963035Y-113386776D02*
X143891606Y-113243919D01*
X143891606Y-113243919D02*
X143748749Y-113101062D01*
X143748749Y-113101062D02*
X143463035Y-113029633D01*
X143463035Y-113029633D02*
X142963035Y-113029633D01*
X142963035Y-113029633D02*
X142677321Y-113101062D01*
X142677321Y-113101062D02*
X142534464Y-113243919D01*
X142534464Y-113243919D02*
X142463035Y-113386776D01*
X142463035Y-113386776D02*
X142463035Y-113672490D01*
X142463035Y-113672490D02*
X142534464Y-113815348D01*
X142534464Y-113815348D02*
X142677321Y-113958205D01*
X142677321Y-113958205D02*
X142963035Y-114029633D01*
X142963035Y-114029633D02*
X143463035Y-114029633D01*
X143463035Y-114029633D02*
X143748749Y-113958205D01*
X143748749Y-113958205D02*
X143891606Y-113815348D01*
X143891606Y-113815348D02*
X143963035Y-113672490D01*
X143963035Y-111672490D02*
X143963035Y-112386776D01*
X143963035Y-112386776D02*
X143248749Y-112458204D01*
X143248749Y-112458204D02*
X143320178Y-112386776D01*
X143320178Y-112386776D02*
X143391606Y-112243919D01*
X143391606Y-112243919D02*
X143391606Y-111886776D01*
X143391606Y-111886776D02*
X143320178Y-111743919D01*
X143320178Y-111743919D02*
X143248749Y-111672490D01*
X143248749Y-111672490D02*
X143105892Y-111601061D01*
X143105892Y-111601061D02*
X142748749Y-111601061D01*
X142748749Y-111601061D02*
X142605892Y-111672490D01*
X142605892Y-111672490D02*
X142534464Y-111743919D01*
X142534464Y-111743919D02*
X142463035Y-111886776D01*
X142463035Y-111886776D02*
X142463035Y-112243919D01*
X142463035Y-112243919D02*
X142534464Y-112386776D01*
X142534464Y-112386776D02*
X142605892Y-112458204D01*
X142463035Y-110958205D02*
X143963035Y-110958205D01*
X143963035Y-110958205D02*
X143963035Y-110386776D01*
X143963035Y-110386776D02*
X143891606Y-110243919D01*
X143891606Y-110243919D02*
X143820178Y-110172490D01*
X143820178Y-110172490D02*
X143677321Y-110101062D01*
X143677321Y-110101062D02*
X143463035Y-110101062D01*
X143463035Y-110101062D02*
X143320178Y-110172490D01*
X143320178Y-110172490D02*
X143248749Y-110243919D01*
X143248749Y-110243919D02*
X143177321Y-110386776D01*
X143177321Y-110386776D02*
X143177321Y-110958205D01*
X143963035Y-109672490D02*
X143963035Y-108815348D01*
X142463035Y-109243919D02*
X143963035Y-109243919D01*
X142463035Y-108315348D02*
X143963035Y-108315348D01*
X143963035Y-108315348D02*
X143963035Y-107958205D01*
X143963035Y-107958205D02*
X143891606Y-107743919D01*
X143891606Y-107743919D02*
X143748749Y-107601062D01*
X143748749Y-107601062D02*
X143605892Y-107529633D01*
X143605892Y-107529633D02*
X143320178Y-107458205D01*
X143320178Y-107458205D02*
X143105892Y-107458205D01*
X143105892Y-107458205D02*
X142820178Y-107529633D01*
X142820178Y-107529633D02*
X142677321Y-107601062D01*
X142677321Y-107601062D02*
X142534464Y-107743919D01*
X142534464Y-107743919D02*
X142463035Y-107958205D01*
X142463035Y-107958205D02*
X142463035Y-108315348D01*
X143820178Y-105743919D02*
X143891606Y-105672491D01*
X143891606Y-105672491D02*
X143963035Y-105529634D01*
X143963035Y-105529634D02*
X143963035Y-105172491D01*
X143963035Y-105172491D02*
X143891606Y-105029634D01*
X143891606Y-105029634D02*
X143820178Y-104958205D01*
X143820178Y-104958205D02*
X143677321Y-104886776D01*
X143677321Y-104886776D02*
X143534464Y-104886776D01*
X143534464Y-104886776D02*
X143320178Y-104958205D01*
X143320178Y-104958205D02*
X142463035Y-105815348D01*
X142463035Y-105815348D02*
X142463035Y-104886776D01*
X143963035Y-103958205D02*
X143963035Y-103815348D01*
X143963035Y-103815348D02*
X143891606Y-103672491D01*
X143891606Y-103672491D02*
X143820178Y-103601063D01*
X143820178Y-103601063D02*
X143677321Y-103529634D01*
X143677321Y-103529634D02*
X143391606Y-103458205D01*
X143391606Y-103458205D02*
X143034464Y-103458205D01*
X143034464Y-103458205D02*
X142748749Y-103529634D01*
X142748749Y-103529634D02*
X142605892Y-103601063D01*
X142605892Y-103601063D02*
X142534464Y-103672491D01*
X142534464Y-103672491D02*
X142463035Y-103815348D01*
X142463035Y-103815348D02*
X142463035Y-103958205D01*
X142463035Y-103958205D02*
X142534464Y-104101063D01*
X142534464Y-104101063D02*
X142605892Y-104172491D01*
X142605892Y-104172491D02*
X142748749Y-104243920D01*
X142748749Y-104243920D02*
X143034464Y-104315348D01*
X143034464Y-104315348D02*
X143391606Y-104315348D01*
X143391606Y-104315348D02*
X143677321Y-104243920D01*
X143677321Y-104243920D02*
X143820178Y-104172491D01*
X143820178Y-104172491D02*
X143891606Y-104101063D01*
X143891606Y-104101063D02*
X143963035Y-103958205D01*
X143820178Y-102886777D02*
X143891606Y-102815349D01*
X143891606Y-102815349D02*
X143963035Y-102672492D01*
X143963035Y-102672492D02*
X143963035Y-102315349D01*
X143963035Y-102315349D02*
X143891606Y-102172492D01*
X143891606Y-102172492D02*
X143820178Y-102101063D01*
X143820178Y-102101063D02*
X143677321Y-102029634D01*
X143677321Y-102029634D02*
X143534464Y-102029634D01*
X143534464Y-102029634D02*
X143320178Y-102101063D01*
X143320178Y-102101063D02*
X142463035Y-102958206D01*
X142463035Y-102958206D02*
X142463035Y-102029634D01*
X143463035Y-100743921D02*
X142463035Y-100743921D01*
X144034464Y-101101063D02*
X142963035Y-101458206D01*
X142963035Y-101458206D02*
X142963035Y-100529635D01*
X143463035Y-98172493D02*
X142463035Y-98172493D01*
X143463035Y-98815350D02*
X142677321Y-98815350D01*
X142677321Y-98815350D02*
X142534464Y-98743921D01*
X142534464Y-98743921D02*
X142463035Y-98601064D01*
X142463035Y-98601064D02*
X142463035Y-98386778D01*
X142463035Y-98386778D02*
X142534464Y-98243921D01*
X142534464Y-98243921D02*
X142605892Y-98172493D01*
X143463035Y-97458207D02*
X142463035Y-97458207D01*
X143320178Y-97458207D02*
X143391606Y-97386778D01*
X143391606Y-97386778D02*
X143463035Y-97243921D01*
X143463035Y-97243921D02*
X143463035Y-97029635D01*
X143463035Y-97029635D02*
X143391606Y-96886778D01*
X143391606Y-96886778D02*
X143248749Y-96815350D01*
X143248749Y-96815350D02*
X142463035Y-96815350D01*
X143463035Y-96315349D02*
X143463035Y-95743921D01*
X143963035Y-96101064D02*
X142677321Y-96101064D01*
X142677321Y-96101064D02*
X142534464Y-96029635D01*
X142534464Y-96029635D02*
X142463035Y-95886778D01*
X142463035Y-95886778D02*
X142463035Y-95743921D01*
X142534464Y-94672492D02*
X142463035Y-94815349D01*
X142463035Y-94815349D02*
X142463035Y-95101064D01*
X142463035Y-95101064D02*
X142534464Y-95243921D01*
X142534464Y-95243921D02*
X142677321Y-95315349D01*
X142677321Y-95315349D02*
X143248749Y-95315349D01*
X143248749Y-95315349D02*
X143391606Y-95243921D01*
X143391606Y-95243921D02*
X143463035Y-95101064D01*
X143463035Y-95101064D02*
X143463035Y-94815349D01*
X143463035Y-94815349D02*
X143391606Y-94672492D01*
X143391606Y-94672492D02*
X143248749Y-94601064D01*
X143248749Y-94601064D02*
X143105892Y-94601064D01*
X143105892Y-94601064D02*
X142963035Y-95315349D01*
X142534464Y-94029635D02*
X142463035Y-93886778D01*
X142463035Y-93886778D02*
X142463035Y-93601064D01*
X142463035Y-93601064D02*
X142534464Y-93458207D01*
X142534464Y-93458207D02*
X142677321Y-93386778D01*
X142677321Y-93386778D02*
X142748749Y-93386778D01*
X142748749Y-93386778D02*
X142891606Y-93458207D01*
X142891606Y-93458207D02*
X142963035Y-93601064D01*
X142963035Y-93601064D02*
X142963035Y-93815350D01*
X142963035Y-93815350D02*
X143034464Y-93958207D01*
X143034464Y-93958207D02*
X143177321Y-94029635D01*
X143177321Y-94029635D02*
X143248749Y-94029635D01*
X143248749Y-94029635D02*
X143391606Y-93958207D01*
X143391606Y-93958207D02*
X143463035Y-93815350D01*
X143463035Y-93815350D02*
X143463035Y-93601064D01*
X143463035Y-93601064D02*
X143391606Y-93458207D01*
X143463035Y-92958206D02*
X143463035Y-92386778D01*
X143963035Y-92743921D02*
X142677321Y-92743921D01*
X142677321Y-92743921D02*
X142534464Y-92672492D01*
X142534464Y-92672492D02*
X142463035Y-92529635D01*
X142463035Y-92529635D02*
X142463035Y-92386778D01*
X142534464Y-91315349D02*
X142463035Y-91458206D01*
X142463035Y-91458206D02*
X142463035Y-91743921D01*
X142463035Y-91743921D02*
X142534464Y-91886778D01*
X142534464Y-91886778D02*
X142677321Y-91958206D01*
X142677321Y-91958206D02*
X143248749Y-91958206D01*
X143248749Y-91958206D02*
X143391606Y-91886778D01*
X143391606Y-91886778D02*
X143463035Y-91743921D01*
X143463035Y-91743921D02*
X143463035Y-91458206D01*
X143463035Y-91458206D02*
X143391606Y-91315349D01*
X143391606Y-91315349D02*
X143248749Y-91243921D01*
X143248749Y-91243921D02*
X143105892Y-91243921D01*
X143105892Y-91243921D02*
X142963035Y-91958206D01*
X142463035Y-89958207D02*
X143963035Y-89958207D01*
X142534464Y-89958207D02*
X142463035Y-90101064D01*
X142463035Y-90101064D02*
X142463035Y-90386778D01*
X142463035Y-90386778D02*
X142534464Y-90529635D01*
X142534464Y-90529635D02*
X142605892Y-90601064D01*
X142605892Y-90601064D02*
X142748749Y-90672492D01*
X142748749Y-90672492D02*
X143177321Y-90672492D01*
X143177321Y-90672492D02*
X143320178Y-90601064D01*
X143320178Y-90601064D02*
X143391606Y-90529635D01*
X143391606Y-90529635D02*
X143463035Y-90386778D01*
X143463035Y-90386778D02*
X143463035Y-90101064D01*
X143463035Y-90101064D02*
X143391606Y-89958207D01*
X115912741Y-116535387D02*
X114698455Y-116535387D01*
X114698455Y-116535387D02*
X114555598Y-116463958D01*
X114555598Y-116463958D02*
X114484170Y-116392530D01*
X114484170Y-116392530D02*
X114412741Y-116249672D01*
X114412741Y-116249672D02*
X114412741Y-115963958D01*
X114412741Y-115963958D02*
X114484170Y-115821101D01*
X114484170Y-115821101D02*
X114555598Y-115749672D01*
X114555598Y-115749672D02*
X114698455Y-115678244D01*
X114698455Y-115678244D02*
X115912741Y-115678244D01*
X114484170Y-115035386D02*
X114412741Y-114892529D01*
X114412741Y-114892529D02*
X114412741Y-114606815D01*
X114412741Y-114606815D02*
X114484170Y-114463958D01*
X114484170Y-114463958D02*
X114627027Y-114392529D01*
X114627027Y-114392529D02*
X114698455Y-114392529D01*
X114698455Y-114392529D02*
X114841312Y-114463958D01*
X114841312Y-114463958D02*
X114912741Y-114606815D01*
X114912741Y-114606815D02*
X114912741Y-114821101D01*
X114912741Y-114821101D02*
X114984170Y-114963958D01*
X114984170Y-114963958D02*
X115127027Y-115035386D01*
X115127027Y-115035386D02*
X115198455Y-115035386D01*
X115198455Y-115035386D02*
X115341312Y-114963958D01*
X115341312Y-114963958D02*
X115412741Y-114821101D01*
X115412741Y-114821101D02*
X115412741Y-114606815D01*
X115412741Y-114606815D02*
X115341312Y-114463958D01*
X114484170Y-113178243D02*
X114412741Y-113321100D01*
X114412741Y-113321100D02*
X114412741Y-113606815D01*
X114412741Y-113606815D02*
X114484170Y-113749672D01*
X114484170Y-113749672D02*
X114627027Y-113821100D01*
X114627027Y-113821100D02*
X115198455Y-113821100D01*
X115198455Y-113821100D02*
X115341312Y-113749672D01*
X115341312Y-113749672D02*
X115412741Y-113606815D01*
X115412741Y-113606815D02*
X115412741Y-113321100D01*
X115412741Y-113321100D02*
X115341312Y-113178243D01*
X115341312Y-113178243D02*
X115198455Y-113106815D01*
X115198455Y-113106815D02*
X115055598Y-113106815D01*
X115055598Y-113106815D02*
X114912741Y-113821100D01*
X114412741Y-111106815D02*
X114484170Y-111249672D01*
X114484170Y-111249672D02*
X114555598Y-111321101D01*
X114555598Y-111321101D02*
X114698455Y-111392529D01*
X114698455Y-111392529D02*
X115127027Y-111392529D01*
X115127027Y-111392529D02*
X115269884Y-111321101D01*
X115269884Y-111321101D02*
X115341312Y-111249672D01*
X115341312Y-111249672D02*
X115412741Y-111106815D01*
X115412741Y-111106815D02*
X115412741Y-110892529D01*
X115412741Y-110892529D02*
X115341312Y-110749672D01*
X115341312Y-110749672D02*
X115269884Y-110678244D01*
X115269884Y-110678244D02*
X115127027Y-110606815D01*
X115127027Y-110606815D02*
X114698455Y-110606815D01*
X114698455Y-110606815D02*
X114555598Y-110678244D01*
X114555598Y-110678244D02*
X114484170Y-110749672D01*
X114484170Y-110749672D02*
X114412741Y-110892529D01*
X114412741Y-110892529D02*
X114412741Y-111106815D01*
X115412741Y-109963958D02*
X114412741Y-109963958D01*
X115269884Y-109963958D02*
X115341312Y-109892529D01*
X115341312Y-109892529D02*
X115412741Y-109749672D01*
X115412741Y-109749672D02*
X115412741Y-109535386D01*
X115412741Y-109535386D02*
X115341312Y-109392529D01*
X115341312Y-109392529D02*
X115198455Y-109321101D01*
X115198455Y-109321101D02*
X114412741Y-109321101D01*
X114412741Y-108392529D02*
X114484170Y-108535386D01*
X114484170Y-108535386D02*
X114627027Y-108606815D01*
X114627027Y-108606815D02*
X115912741Y-108606815D01*
X115412741Y-107963958D02*
X114412741Y-107606815D01*
X115412741Y-107249672D02*
X114412741Y-107606815D01*
X114412741Y-107606815D02*
X114055598Y-107749672D01*
X114055598Y-107749672D02*
X113984170Y-107821101D01*
X113984170Y-107821101D02*
X113912741Y-107963958D01*
X114412741Y-104892530D02*
X115198455Y-104892530D01*
X115198455Y-104892530D02*
X115341312Y-104963958D01*
X115341312Y-104963958D02*
X115412741Y-105106815D01*
X115412741Y-105106815D02*
X115412741Y-105392530D01*
X115412741Y-105392530D02*
X115341312Y-105535387D01*
X114484170Y-104892530D02*
X114412741Y-105035387D01*
X114412741Y-105035387D02*
X114412741Y-105392530D01*
X114412741Y-105392530D02*
X114484170Y-105535387D01*
X114484170Y-105535387D02*
X114627027Y-105606815D01*
X114627027Y-105606815D02*
X114769884Y-105606815D01*
X114769884Y-105606815D02*
X114912741Y-105535387D01*
X114912741Y-105535387D02*
X114984170Y-105392530D01*
X114984170Y-105392530D02*
X114984170Y-105035387D01*
X114984170Y-105035387D02*
X115055598Y-104892530D01*
X114412741Y-103963958D02*
X114484170Y-104106815D01*
X114484170Y-104106815D02*
X114627027Y-104178244D01*
X114627027Y-104178244D02*
X115912741Y-104178244D01*
X114412741Y-103178244D02*
X114484170Y-103321101D01*
X114484170Y-103321101D02*
X114627027Y-103392530D01*
X114627027Y-103392530D02*
X115912741Y-103392530D01*
X115769884Y-101535387D02*
X115841312Y-101463959D01*
X115841312Y-101463959D02*
X115912741Y-101321102D01*
X115912741Y-101321102D02*
X115912741Y-100963959D01*
X115912741Y-100963959D02*
X115841312Y-100821102D01*
X115841312Y-100821102D02*
X115769884Y-100749673D01*
X115769884Y-100749673D02*
X115627027Y-100678244D01*
X115627027Y-100678244D02*
X115484170Y-100678244D01*
X115484170Y-100678244D02*
X115269884Y-100749673D01*
X115269884Y-100749673D02*
X114412741Y-101606816D01*
X114412741Y-101606816D02*
X114412741Y-100678244D01*
X114412741Y-100035388D02*
X115912741Y-100035388D01*
X114412741Y-99178245D02*
X115269884Y-99821102D01*
X115912741Y-99178245D02*
X115055598Y-100035388D01*
X114412741Y-97178245D02*
X114484170Y-97321102D01*
X114484170Y-97321102D02*
X114555598Y-97392531D01*
X114555598Y-97392531D02*
X114698455Y-97463959D01*
X114698455Y-97463959D02*
X115127027Y-97463959D01*
X115127027Y-97463959D02*
X115269884Y-97392531D01*
X115269884Y-97392531D02*
X115341312Y-97321102D01*
X115341312Y-97321102D02*
X115412741Y-97178245D01*
X115412741Y-97178245D02*
X115412741Y-96963959D01*
X115412741Y-96963959D02*
X115341312Y-96821102D01*
X115341312Y-96821102D02*
X115269884Y-96749674D01*
X115269884Y-96749674D02*
X115127027Y-96678245D01*
X115127027Y-96678245D02*
X114698455Y-96678245D01*
X114698455Y-96678245D02*
X114555598Y-96749674D01*
X114555598Y-96749674D02*
X114484170Y-96821102D01*
X114484170Y-96821102D02*
X114412741Y-96963959D01*
X114412741Y-96963959D02*
X114412741Y-97178245D01*
X114412741Y-96035388D02*
X115412741Y-96035388D01*
X115127027Y-96035388D02*
X115269884Y-95963959D01*
X115269884Y-95963959D02*
X115341312Y-95892531D01*
X115341312Y-95892531D02*
X115412741Y-95749673D01*
X115412741Y-95749673D02*
X115412741Y-95606816D01*
X115412741Y-93321103D02*
X114412741Y-93321103D01*
X115984170Y-93678245D02*
X114912741Y-94035388D01*
X114912741Y-94035388D02*
X114912741Y-93106817D01*
X114412741Y-92535389D02*
X115912741Y-92535389D01*
X114412741Y-91678246D02*
X115269884Y-92321103D01*
X115912741Y-91678246D02*
X115055598Y-92535389D01*
X114412741Y-89035389D02*
X115127027Y-89535389D01*
X114412741Y-89892532D02*
X115912741Y-89892532D01*
X115912741Y-89892532D02*
X115912741Y-89321103D01*
X115912741Y-89321103D02*
X115841312Y-89178246D01*
X115841312Y-89178246D02*
X115769884Y-89106817D01*
X115769884Y-89106817D02*
X115627027Y-89035389D01*
X115627027Y-89035389D02*
X115412741Y-89035389D01*
X115412741Y-89035389D02*
X115269884Y-89106817D01*
X115269884Y-89106817D02*
X115198455Y-89178246D01*
X115198455Y-89178246D02*
X115127027Y-89321103D01*
X115127027Y-89321103D02*
X115127027Y-89892532D01*
X115912741Y-88106817D02*
X115912741Y-87821103D01*
X115912741Y-87821103D02*
X115841312Y-87678246D01*
X115841312Y-87678246D02*
X115698455Y-87535389D01*
X115698455Y-87535389D02*
X115412741Y-87463960D01*
X115412741Y-87463960D02*
X114912741Y-87463960D01*
X114912741Y-87463960D02*
X114627027Y-87535389D01*
X114627027Y-87535389D02*
X114484170Y-87678246D01*
X114484170Y-87678246D02*
X114412741Y-87821103D01*
X114412741Y-87821103D02*
X114412741Y-88106817D01*
X114412741Y-88106817D02*
X114484170Y-88249675D01*
X114484170Y-88249675D02*
X114627027Y-88392532D01*
X114627027Y-88392532D02*
X114912741Y-88463960D01*
X114912741Y-88463960D02*
X115412741Y-88463960D01*
X115412741Y-88463960D02*
X115698455Y-88392532D01*
X115698455Y-88392532D02*
X115841312Y-88249675D01*
X115841312Y-88249675D02*
X115912741Y-88106817D01*
X114412741Y-86821103D02*
X115912741Y-86821103D01*
X115912741Y-86821103D02*
X114841312Y-86321103D01*
X114841312Y-86321103D02*
X115912741Y-85821103D01*
X115912741Y-85821103D02*
X114412741Y-85821103D01*
X115912741Y-85035388D02*
X115627027Y-85178245D01*
X114484170Y-84463959D02*
X114412741Y-84321102D01*
X114412741Y-84321102D02*
X114412741Y-84035388D01*
X114412741Y-84035388D02*
X114484170Y-83892531D01*
X114484170Y-83892531D02*
X114627027Y-83821102D01*
X114627027Y-83821102D02*
X114698455Y-83821102D01*
X114698455Y-83821102D02*
X114841312Y-83892531D01*
X114841312Y-83892531D02*
X114912741Y-84035388D01*
X114912741Y-84035388D02*
X114912741Y-84249674D01*
X114912741Y-84249674D02*
X114984170Y-84392531D01*
X114984170Y-84392531D02*
X115127027Y-84463959D01*
X115127027Y-84463959D02*
X115198455Y-84463959D01*
X115198455Y-84463959D02*
X115341312Y-84392531D01*
X115341312Y-84392531D02*
X115412741Y-84249674D01*
X115412741Y-84249674D02*
X115412741Y-84035388D01*
X115412741Y-84035388D02*
X115341312Y-83892531D01*
X114412741Y-81392531D02*
X115198455Y-81392531D01*
X115198455Y-81392531D02*
X115341312Y-81463959D01*
X115341312Y-81463959D02*
X115412741Y-81606816D01*
X115412741Y-81606816D02*
X115412741Y-81892531D01*
X115412741Y-81892531D02*
X115341312Y-82035388D01*
X114484170Y-81392531D02*
X114412741Y-81535388D01*
X114412741Y-81535388D02*
X114412741Y-81892531D01*
X114412741Y-81892531D02*
X114484170Y-82035388D01*
X114484170Y-82035388D02*
X114627027Y-82106816D01*
X114627027Y-82106816D02*
X114769884Y-82106816D01*
X114769884Y-82106816D02*
X114912741Y-82035388D01*
X114912741Y-82035388D02*
X114984170Y-81892531D01*
X114984170Y-81892531D02*
X114984170Y-81535388D01*
X114984170Y-81535388D02*
X115055598Y-81392531D01*
X115412741Y-80678245D02*
X113912741Y-80678245D01*
X115341312Y-80678245D02*
X115412741Y-80535388D01*
X115412741Y-80535388D02*
X115412741Y-80249673D01*
X115412741Y-80249673D02*
X115341312Y-80106816D01*
X115341312Y-80106816D02*
X115269884Y-80035388D01*
X115269884Y-80035388D02*
X115127027Y-79963959D01*
X115127027Y-79963959D02*
X114698455Y-79963959D01*
X114698455Y-79963959D02*
X114555598Y-80035388D01*
X114555598Y-80035388D02*
X114484170Y-80106816D01*
X114484170Y-80106816D02*
X114412741Y-80249673D01*
X114412741Y-80249673D02*
X114412741Y-80535388D01*
X114412741Y-80535388D02*
X114484170Y-80678245D01*
X115412741Y-79321102D02*
X113912741Y-79321102D01*
X115341312Y-79321102D02*
X115412741Y-79178245D01*
X115412741Y-79178245D02*
X115412741Y-78892530D01*
X115412741Y-78892530D02*
X115341312Y-78749673D01*
X115341312Y-78749673D02*
X115269884Y-78678245D01*
X115269884Y-78678245D02*
X115127027Y-78606816D01*
X115127027Y-78606816D02*
X114698455Y-78606816D01*
X114698455Y-78606816D02*
X114555598Y-78678245D01*
X114555598Y-78678245D02*
X114484170Y-78749673D01*
X114484170Y-78749673D02*
X114412741Y-78892530D01*
X114412741Y-78892530D02*
X114412741Y-79178245D01*
X114412741Y-79178245D02*
X114484170Y-79321102D01*
X114484170Y-77392530D02*
X114412741Y-77535387D01*
X114412741Y-77535387D02*
X114412741Y-77821102D01*
X114412741Y-77821102D02*
X114484170Y-77963959D01*
X114484170Y-77963959D02*
X114627027Y-78035387D01*
X114627027Y-78035387D02*
X115198455Y-78035387D01*
X115198455Y-78035387D02*
X115341312Y-77963959D01*
X115341312Y-77963959D02*
X115412741Y-77821102D01*
X115412741Y-77821102D02*
X115412741Y-77535387D01*
X115412741Y-77535387D02*
X115341312Y-77392530D01*
X115341312Y-77392530D02*
X115198455Y-77321102D01*
X115198455Y-77321102D02*
X115055598Y-77321102D01*
X115055598Y-77321102D02*
X114912741Y-78035387D01*
X115412741Y-76678245D02*
X114412741Y-76678245D01*
X115269884Y-76678245D02*
X115341312Y-76606816D01*
X115341312Y-76606816D02*
X115412741Y-76463959D01*
X115412741Y-76463959D02*
X115412741Y-76249673D01*
X115412741Y-76249673D02*
X115341312Y-76106816D01*
X115341312Y-76106816D02*
X115198455Y-76035388D01*
X115198455Y-76035388D02*
X114412741Y-76035388D01*
X114412741Y-74678245D02*
X115912741Y-74678245D01*
X114484170Y-74678245D02*
X114412741Y-74821102D01*
X114412741Y-74821102D02*
X114412741Y-75106816D01*
X114412741Y-75106816D02*
X114484170Y-75249673D01*
X114484170Y-75249673D02*
X114555598Y-75321102D01*
X114555598Y-75321102D02*
X114698455Y-75392530D01*
X114698455Y-75392530D02*
X115127027Y-75392530D01*
X115127027Y-75392530D02*
X115269884Y-75321102D01*
X115269884Y-75321102D02*
X115341312Y-75249673D01*
X115341312Y-75249673D02*
X115412741Y-75106816D01*
X115412741Y-75106816D02*
X115412741Y-74821102D01*
X115412741Y-74821102D02*
X115341312Y-74678245D01*
X114484170Y-73392530D02*
X114412741Y-73535387D01*
X114412741Y-73535387D02*
X114412741Y-73821102D01*
X114412741Y-73821102D02*
X114484170Y-73963959D01*
X114484170Y-73963959D02*
X114627027Y-74035387D01*
X114627027Y-74035387D02*
X115198455Y-74035387D01*
X115198455Y-74035387D02*
X115341312Y-73963959D01*
X115341312Y-73963959D02*
X115412741Y-73821102D01*
X115412741Y-73821102D02*
X115412741Y-73535387D01*
X115412741Y-73535387D02*
X115341312Y-73392530D01*
X115341312Y-73392530D02*
X115198455Y-73321102D01*
X115198455Y-73321102D02*
X115055598Y-73321102D01*
X115055598Y-73321102D02*
X114912741Y-74035387D01*
X114412741Y-72035388D02*
X115912741Y-72035388D01*
X114484170Y-72035388D02*
X114412741Y-72178245D01*
X114412741Y-72178245D02*
X114412741Y-72463959D01*
X114412741Y-72463959D02*
X114484170Y-72606816D01*
X114484170Y-72606816D02*
X114555598Y-72678245D01*
X114555598Y-72678245D02*
X114698455Y-72749673D01*
X114698455Y-72749673D02*
X115127027Y-72749673D01*
X115127027Y-72749673D02*
X115269884Y-72678245D01*
X115269884Y-72678245D02*
X115341312Y-72606816D01*
X115341312Y-72606816D02*
X115412741Y-72463959D01*
X115412741Y-72463959D02*
X115412741Y-72178245D01*
X115412741Y-72178245D02*
X115341312Y-72035388D01*
X115412741Y-70392530D02*
X115412741Y-69821102D01*
X115912741Y-70178245D02*
X114627027Y-70178245D01*
X114627027Y-70178245D02*
X114484170Y-70106816D01*
X114484170Y-70106816D02*
X114412741Y-69963959D01*
X114412741Y-69963959D02*
X114412741Y-69821102D01*
X114412741Y-69106816D02*
X114484170Y-69249673D01*
X114484170Y-69249673D02*
X114555598Y-69321102D01*
X114555598Y-69321102D02*
X114698455Y-69392530D01*
X114698455Y-69392530D02*
X115127027Y-69392530D01*
X115127027Y-69392530D02*
X115269884Y-69321102D01*
X115269884Y-69321102D02*
X115341312Y-69249673D01*
X115341312Y-69249673D02*
X115412741Y-69106816D01*
X115412741Y-69106816D02*
X115412741Y-68892530D01*
X115412741Y-68892530D02*
X115341312Y-68749673D01*
X115341312Y-68749673D02*
X115269884Y-68678245D01*
X115269884Y-68678245D02*
X115127027Y-68606816D01*
X115127027Y-68606816D02*
X114698455Y-68606816D01*
X114698455Y-68606816D02*
X114555598Y-68678245D01*
X114555598Y-68678245D02*
X114484170Y-68749673D01*
X114484170Y-68749673D02*
X114412741Y-68892530D01*
X114412741Y-68892530D02*
X114412741Y-69106816D01*
X114484170Y-66249673D02*
X114412741Y-66392530D01*
X114412741Y-66392530D02*
X114412741Y-66678245D01*
X114412741Y-66678245D02*
X114484170Y-66821102D01*
X114484170Y-66821102D02*
X114627027Y-66892530D01*
X114627027Y-66892530D02*
X115198455Y-66892530D01*
X115198455Y-66892530D02*
X115341312Y-66821102D01*
X115341312Y-66821102D02*
X115412741Y-66678245D01*
X115412741Y-66678245D02*
X115412741Y-66392530D01*
X115412741Y-66392530D02*
X115341312Y-66249673D01*
X115341312Y-66249673D02*
X115198455Y-66178245D01*
X115198455Y-66178245D02*
X115055598Y-66178245D01*
X115055598Y-66178245D02*
X114912741Y-66892530D01*
X114412741Y-64892531D02*
X115198455Y-64892531D01*
X115198455Y-64892531D02*
X115341312Y-64963959D01*
X115341312Y-64963959D02*
X115412741Y-65106816D01*
X115412741Y-65106816D02*
X115412741Y-65392531D01*
X115412741Y-65392531D02*
X115341312Y-65535388D01*
X114484170Y-64892531D02*
X114412741Y-65035388D01*
X114412741Y-65035388D02*
X114412741Y-65392531D01*
X114412741Y-65392531D02*
X114484170Y-65535388D01*
X114484170Y-65535388D02*
X114627027Y-65606816D01*
X114627027Y-65606816D02*
X114769884Y-65606816D01*
X114769884Y-65606816D02*
X114912741Y-65535388D01*
X114912741Y-65535388D02*
X114984170Y-65392531D01*
X114984170Y-65392531D02*
X114984170Y-65035388D01*
X114984170Y-65035388D02*
X115055598Y-64892531D01*
X114484170Y-63535388D02*
X114412741Y-63678245D01*
X114412741Y-63678245D02*
X114412741Y-63963959D01*
X114412741Y-63963959D02*
X114484170Y-64106816D01*
X114484170Y-64106816D02*
X114555598Y-64178245D01*
X114555598Y-64178245D02*
X114698455Y-64249673D01*
X114698455Y-64249673D02*
X115127027Y-64249673D01*
X115127027Y-64249673D02*
X115269884Y-64178245D01*
X115269884Y-64178245D02*
X115341312Y-64106816D01*
X115341312Y-64106816D02*
X115412741Y-63963959D01*
X115412741Y-63963959D02*
X115412741Y-63678245D01*
X115412741Y-63678245D02*
X115341312Y-63535388D01*
X114412741Y-62892531D02*
X115912741Y-62892531D01*
X114412741Y-62249674D02*
X115198455Y-62249674D01*
X115198455Y-62249674D02*
X115341312Y-62321102D01*
X115341312Y-62321102D02*
X115412741Y-62463959D01*
X115412741Y-62463959D02*
X115412741Y-62678245D01*
X115412741Y-62678245D02*
X115341312Y-62821102D01*
X115341312Y-62821102D02*
X115269884Y-62892531D01*
X114412741Y-60178245D02*
X114484170Y-60321102D01*
X114484170Y-60321102D02*
X114555598Y-60392531D01*
X114555598Y-60392531D02*
X114698455Y-60463959D01*
X114698455Y-60463959D02*
X115127027Y-60463959D01*
X115127027Y-60463959D02*
X115269884Y-60392531D01*
X115269884Y-60392531D02*
X115341312Y-60321102D01*
X115341312Y-60321102D02*
X115412741Y-60178245D01*
X115412741Y-60178245D02*
X115412741Y-59963959D01*
X115412741Y-59963959D02*
X115341312Y-59821102D01*
X115341312Y-59821102D02*
X115269884Y-59749674D01*
X115269884Y-59749674D02*
X115127027Y-59678245D01*
X115127027Y-59678245D02*
X114698455Y-59678245D01*
X114698455Y-59678245D02*
X114555598Y-59749674D01*
X114555598Y-59749674D02*
X114484170Y-59821102D01*
X114484170Y-59821102D02*
X114412741Y-59963959D01*
X114412741Y-59963959D02*
X114412741Y-60178245D01*
X115412741Y-59249673D02*
X115412741Y-58678245D01*
X115912741Y-59035388D02*
X114627027Y-59035388D01*
X114627027Y-59035388D02*
X114484170Y-58963959D01*
X114484170Y-58963959D02*
X114412741Y-58821102D01*
X114412741Y-58821102D02*
X114412741Y-58678245D01*
X114412741Y-58178245D02*
X115912741Y-58178245D01*
X114412741Y-57535388D02*
X115198455Y-57535388D01*
X115198455Y-57535388D02*
X115341312Y-57606816D01*
X115341312Y-57606816D02*
X115412741Y-57749673D01*
X115412741Y-57749673D02*
X115412741Y-57963959D01*
X115412741Y-57963959D02*
X115341312Y-58106816D01*
X115341312Y-58106816D02*
X115269884Y-58178245D01*
X114484170Y-56249673D02*
X114412741Y-56392530D01*
X114412741Y-56392530D02*
X114412741Y-56678245D01*
X114412741Y-56678245D02*
X114484170Y-56821102D01*
X114484170Y-56821102D02*
X114627027Y-56892530D01*
X114627027Y-56892530D02*
X115198455Y-56892530D01*
X115198455Y-56892530D02*
X115341312Y-56821102D01*
X115341312Y-56821102D02*
X115412741Y-56678245D01*
X115412741Y-56678245D02*
X115412741Y-56392530D01*
X115412741Y-56392530D02*
X115341312Y-56249673D01*
X115341312Y-56249673D02*
X115198455Y-56178245D01*
X115198455Y-56178245D02*
X115055598Y-56178245D01*
X115055598Y-56178245D02*
X114912741Y-56892530D01*
X114412741Y-55535388D02*
X115412741Y-55535388D01*
X115127027Y-55535388D02*
X115269884Y-55463959D01*
X115269884Y-55463959D02*
X115341312Y-55392531D01*
X115341312Y-55392531D02*
X115412741Y-55249673D01*
X115412741Y-55249673D02*
X115412741Y-55106816D01*
X114555598Y-54606817D02*
X114484170Y-54535388D01*
X114484170Y-54535388D02*
X114412741Y-54606817D01*
X114412741Y-54606817D02*
X114484170Y-54678245D01*
X114484170Y-54678245D02*
X114555598Y-54606817D01*
X114555598Y-54606817D02*
X114412741Y-54606817D01*
X110368455Y-116035387D02*
X110368455Y-116535387D01*
X109582741Y-116535387D02*
X111082741Y-116535387D01*
X111082741Y-116535387D02*
X111082741Y-115821101D01*
X109582741Y-115035387D02*
X109654170Y-115178244D01*
X109654170Y-115178244D02*
X109725598Y-115249673D01*
X109725598Y-115249673D02*
X109868455Y-115321101D01*
X109868455Y-115321101D02*
X110297027Y-115321101D01*
X110297027Y-115321101D02*
X110439884Y-115249673D01*
X110439884Y-115249673D02*
X110511312Y-115178244D01*
X110511312Y-115178244D02*
X110582741Y-115035387D01*
X110582741Y-115035387D02*
X110582741Y-114821101D01*
X110582741Y-114821101D02*
X110511312Y-114678244D01*
X110511312Y-114678244D02*
X110439884Y-114606816D01*
X110439884Y-114606816D02*
X110297027Y-114535387D01*
X110297027Y-114535387D02*
X109868455Y-114535387D01*
X109868455Y-114535387D02*
X109725598Y-114606816D01*
X109725598Y-114606816D02*
X109654170Y-114678244D01*
X109654170Y-114678244D02*
X109582741Y-114821101D01*
X109582741Y-114821101D02*
X109582741Y-115035387D01*
X109582741Y-113892530D02*
X110582741Y-113892530D01*
X110297027Y-113892530D02*
X110439884Y-113821101D01*
X110439884Y-113821101D02*
X110511312Y-113749673D01*
X110511312Y-113749673D02*
X110582741Y-113606815D01*
X110582741Y-113606815D02*
X110582741Y-113463958D01*
X110582741Y-111178245D02*
X109582741Y-111178245D01*
X111154170Y-111535387D02*
X110082741Y-111892530D01*
X110082741Y-111892530D02*
X110082741Y-110963959D01*
X109582741Y-110392531D02*
X111082741Y-110392531D01*
X109582741Y-109535388D02*
X110439884Y-110178245D01*
X111082741Y-109535388D02*
X110225598Y-110392531D01*
X109582741Y-106892531D02*
X110297027Y-107392531D01*
X109582741Y-107749674D02*
X111082741Y-107749674D01*
X111082741Y-107749674D02*
X111082741Y-107178245D01*
X111082741Y-107178245D02*
X111011312Y-107035388D01*
X111011312Y-107035388D02*
X110939884Y-106963959D01*
X110939884Y-106963959D02*
X110797027Y-106892531D01*
X110797027Y-106892531D02*
X110582741Y-106892531D01*
X110582741Y-106892531D02*
X110439884Y-106963959D01*
X110439884Y-106963959D02*
X110368455Y-107035388D01*
X110368455Y-107035388D02*
X110297027Y-107178245D01*
X110297027Y-107178245D02*
X110297027Y-107749674D01*
X111082741Y-105963959D02*
X111082741Y-105678245D01*
X111082741Y-105678245D02*
X111011312Y-105535388D01*
X111011312Y-105535388D02*
X110868455Y-105392531D01*
X110868455Y-105392531D02*
X110582741Y-105321102D01*
X110582741Y-105321102D02*
X110082741Y-105321102D01*
X110082741Y-105321102D02*
X109797027Y-105392531D01*
X109797027Y-105392531D02*
X109654170Y-105535388D01*
X109654170Y-105535388D02*
X109582741Y-105678245D01*
X109582741Y-105678245D02*
X109582741Y-105963959D01*
X109582741Y-105963959D02*
X109654170Y-106106817D01*
X109654170Y-106106817D02*
X109797027Y-106249674D01*
X109797027Y-106249674D02*
X110082741Y-106321102D01*
X110082741Y-106321102D02*
X110582741Y-106321102D01*
X110582741Y-106321102D02*
X110868455Y-106249674D01*
X110868455Y-106249674D02*
X111011312Y-106106817D01*
X111011312Y-106106817D02*
X111082741Y-105963959D01*
X109582741Y-104678245D02*
X111082741Y-104678245D01*
X111082741Y-104678245D02*
X110011312Y-104178245D01*
X110011312Y-104178245D02*
X111082741Y-103678245D01*
X111082741Y-103678245D02*
X109582741Y-103678245D01*
X111082741Y-102892530D02*
X110797027Y-103035387D01*
X109654170Y-102321101D02*
X109582741Y-102178244D01*
X109582741Y-102178244D02*
X109582741Y-101892530D01*
X109582741Y-101892530D02*
X109654170Y-101749673D01*
X109654170Y-101749673D02*
X109797027Y-101678244D01*
X109797027Y-101678244D02*
X109868455Y-101678244D01*
X109868455Y-101678244D02*
X110011312Y-101749673D01*
X110011312Y-101749673D02*
X110082741Y-101892530D01*
X110082741Y-101892530D02*
X110082741Y-102106816D01*
X110082741Y-102106816D02*
X110154170Y-102249673D01*
X110154170Y-102249673D02*
X110297027Y-102321101D01*
X110297027Y-102321101D02*
X110368455Y-102321101D01*
X110368455Y-102321101D02*
X110511312Y-102249673D01*
X110511312Y-102249673D02*
X110582741Y-102106816D01*
X110582741Y-102106816D02*
X110582741Y-101892530D01*
X110582741Y-101892530D02*
X110511312Y-101749673D01*
X109582741Y-99249673D02*
X111082741Y-99249673D01*
X109654170Y-99249673D02*
X109582741Y-99392530D01*
X109582741Y-99392530D02*
X109582741Y-99678244D01*
X109582741Y-99678244D02*
X109654170Y-99821101D01*
X109654170Y-99821101D02*
X109725598Y-99892530D01*
X109725598Y-99892530D02*
X109868455Y-99963958D01*
X109868455Y-99963958D02*
X110297027Y-99963958D01*
X110297027Y-99963958D02*
X110439884Y-99892530D01*
X110439884Y-99892530D02*
X110511312Y-99821101D01*
X110511312Y-99821101D02*
X110582741Y-99678244D01*
X110582741Y-99678244D02*
X110582741Y-99392530D01*
X110582741Y-99392530D02*
X110511312Y-99249673D01*
X109582741Y-98321101D02*
X109654170Y-98463958D01*
X109654170Y-98463958D02*
X109725598Y-98535387D01*
X109725598Y-98535387D02*
X109868455Y-98606815D01*
X109868455Y-98606815D02*
X110297027Y-98606815D01*
X110297027Y-98606815D02*
X110439884Y-98535387D01*
X110439884Y-98535387D02*
X110511312Y-98463958D01*
X110511312Y-98463958D02*
X110582741Y-98321101D01*
X110582741Y-98321101D02*
X110582741Y-98106815D01*
X110582741Y-98106815D02*
X110511312Y-97963958D01*
X110511312Y-97963958D02*
X110439884Y-97892530D01*
X110439884Y-97892530D02*
X110297027Y-97821101D01*
X110297027Y-97821101D02*
X109868455Y-97821101D01*
X109868455Y-97821101D02*
X109725598Y-97892530D01*
X109725598Y-97892530D02*
X109654170Y-97963958D01*
X109654170Y-97963958D02*
X109582741Y-98106815D01*
X109582741Y-98106815D02*
X109582741Y-98321101D01*
X110582741Y-96035387D02*
X109582741Y-96035387D01*
X110439884Y-96035387D02*
X110511312Y-95963958D01*
X110511312Y-95963958D02*
X110582741Y-95821101D01*
X110582741Y-95821101D02*
X110582741Y-95606815D01*
X110582741Y-95606815D02*
X110511312Y-95463958D01*
X110511312Y-95463958D02*
X110368455Y-95392530D01*
X110368455Y-95392530D02*
X109582741Y-95392530D01*
X109582741Y-94463958D02*
X109654170Y-94606815D01*
X109654170Y-94606815D02*
X109725598Y-94678244D01*
X109725598Y-94678244D02*
X109868455Y-94749672D01*
X109868455Y-94749672D02*
X110297027Y-94749672D01*
X110297027Y-94749672D02*
X110439884Y-94678244D01*
X110439884Y-94678244D02*
X110511312Y-94606815D01*
X110511312Y-94606815D02*
X110582741Y-94463958D01*
X110582741Y-94463958D02*
X110582741Y-94249672D01*
X110582741Y-94249672D02*
X110511312Y-94106815D01*
X110511312Y-94106815D02*
X110439884Y-94035387D01*
X110439884Y-94035387D02*
X110297027Y-93963958D01*
X110297027Y-93963958D02*
X109868455Y-93963958D01*
X109868455Y-93963958D02*
X109725598Y-94035387D01*
X109725598Y-94035387D02*
X109654170Y-94106815D01*
X109654170Y-94106815D02*
X109582741Y-94249672D01*
X109582741Y-94249672D02*
X109582741Y-94463958D01*
X110582741Y-93535386D02*
X110582741Y-92963958D01*
X111082741Y-93321101D02*
X109797027Y-93321101D01*
X109797027Y-93321101D02*
X109654170Y-93249672D01*
X109654170Y-93249672D02*
X109582741Y-93106815D01*
X109582741Y-93106815D02*
X109582741Y-92963958D01*
X110582741Y-91321101D02*
X109082741Y-91321101D01*
X110511312Y-91321101D02*
X110582741Y-91178244D01*
X110582741Y-91178244D02*
X110582741Y-90892529D01*
X110582741Y-90892529D02*
X110511312Y-90749672D01*
X110511312Y-90749672D02*
X110439884Y-90678244D01*
X110439884Y-90678244D02*
X110297027Y-90606815D01*
X110297027Y-90606815D02*
X109868455Y-90606815D01*
X109868455Y-90606815D02*
X109725598Y-90678244D01*
X109725598Y-90678244D02*
X109654170Y-90749672D01*
X109654170Y-90749672D02*
X109582741Y-90892529D01*
X109582741Y-90892529D02*
X109582741Y-91178244D01*
X109582741Y-91178244D02*
X109654170Y-91321101D01*
X109582741Y-89749672D02*
X109654170Y-89892529D01*
X109654170Y-89892529D02*
X109725598Y-89963958D01*
X109725598Y-89963958D02*
X109868455Y-90035386D01*
X109868455Y-90035386D02*
X110297027Y-90035386D01*
X110297027Y-90035386D02*
X110439884Y-89963958D01*
X110439884Y-89963958D02*
X110511312Y-89892529D01*
X110511312Y-89892529D02*
X110582741Y-89749672D01*
X110582741Y-89749672D02*
X110582741Y-89535386D01*
X110582741Y-89535386D02*
X110511312Y-89392529D01*
X110511312Y-89392529D02*
X110439884Y-89321101D01*
X110439884Y-89321101D02*
X110297027Y-89249672D01*
X110297027Y-89249672D02*
X109868455Y-89249672D01*
X109868455Y-89249672D02*
X109725598Y-89321101D01*
X109725598Y-89321101D02*
X109654170Y-89392529D01*
X109654170Y-89392529D02*
X109582741Y-89535386D01*
X109582741Y-89535386D02*
X109582741Y-89749672D01*
X110582741Y-88606815D02*
X109082741Y-88606815D01*
X110511312Y-88606815D02*
X110582741Y-88463958D01*
X110582741Y-88463958D02*
X110582741Y-88178243D01*
X110582741Y-88178243D02*
X110511312Y-88035386D01*
X110511312Y-88035386D02*
X110439884Y-87963958D01*
X110439884Y-87963958D02*
X110297027Y-87892529D01*
X110297027Y-87892529D02*
X109868455Y-87892529D01*
X109868455Y-87892529D02*
X109725598Y-87963958D01*
X109725598Y-87963958D02*
X109654170Y-88035386D01*
X109654170Y-88035386D02*
X109582741Y-88178243D01*
X109582741Y-88178243D02*
X109582741Y-88463958D01*
X109582741Y-88463958D02*
X109654170Y-88606815D01*
X110582741Y-86606815D02*
X109582741Y-86606815D01*
X110582741Y-87249672D02*
X109797027Y-87249672D01*
X109797027Y-87249672D02*
X109654170Y-87178243D01*
X109654170Y-87178243D02*
X109582741Y-87035386D01*
X109582741Y-87035386D02*
X109582741Y-86821100D01*
X109582741Y-86821100D02*
X109654170Y-86678243D01*
X109654170Y-86678243D02*
X109725598Y-86606815D01*
X109582741Y-85678243D02*
X109654170Y-85821100D01*
X109654170Y-85821100D02*
X109797027Y-85892529D01*
X109797027Y-85892529D02*
X111082741Y-85892529D01*
X109582741Y-84463958D02*
X110368455Y-84463958D01*
X110368455Y-84463958D02*
X110511312Y-84535386D01*
X110511312Y-84535386D02*
X110582741Y-84678243D01*
X110582741Y-84678243D02*
X110582741Y-84963958D01*
X110582741Y-84963958D02*
X110511312Y-85106815D01*
X109654170Y-84463958D02*
X109582741Y-84606815D01*
X109582741Y-84606815D02*
X109582741Y-84963958D01*
X109582741Y-84963958D02*
X109654170Y-85106815D01*
X109654170Y-85106815D02*
X109797027Y-85178243D01*
X109797027Y-85178243D02*
X109939884Y-85178243D01*
X109939884Y-85178243D02*
X110082741Y-85106815D01*
X110082741Y-85106815D02*
X110154170Y-84963958D01*
X110154170Y-84963958D02*
X110154170Y-84606815D01*
X110154170Y-84606815D02*
X110225598Y-84463958D01*
X110582741Y-83963957D02*
X110582741Y-83392529D01*
X111082741Y-83749672D02*
X109797027Y-83749672D01*
X109797027Y-83749672D02*
X109654170Y-83678243D01*
X109654170Y-83678243D02*
X109582741Y-83535386D01*
X109582741Y-83535386D02*
X109582741Y-83392529D01*
X109654170Y-82321100D02*
X109582741Y-82463957D01*
X109582741Y-82463957D02*
X109582741Y-82749672D01*
X109582741Y-82749672D02*
X109654170Y-82892529D01*
X109654170Y-82892529D02*
X109797027Y-82963957D01*
X109797027Y-82963957D02*
X110368455Y-82963957D01*
X110368455Y-82963957D02*
X110511312Y-82892529D01*
X110511312Y-82892529D02*
X110582741Y-82749672D01*
X110582741Y-82749672D02*
X110582741Y-82463957D01*
X110582741Y-82463957D02*
X110511312Y-82321100D01*
X110511312Y-82321100D02*
X110368455Y-82249672D01*
X110368455Y-82249672D02*
X110225598Y-82249672D01*
X110225598Y-82249672D02*
X110082741Y-82963957D01*
X109582741Y-79606815D02*
X110297027Y-80106815D01*
X109582741Y-80463958D02*
X111082741Y-80463958D01*
X111082741Y-80463958D02*
X111082741Y-79892529D01*
X111082741Y-79892529D02*
X111011312Y-79749672D01*
X111011312Y-79749672D02*
X110939884Y-79678243D01*
X110939884Y-79678243D02*
X110797027Y-79606815D01*
X110797027Y-79606815D02*
X110582741Y-79606815D01*
X110582741Y-79606815D02*
X110439884Y-79678243D01*
X110439884Y-79678243D02*
X110368455Y-79749672D01*
X110368455Y-79749672D02*
X110297027Y-79892529D01*
X110297027Y-79892529D02*
X110297027Y-80463958D01*
X109582741Y-78178243D02*
X109582741Y-79035386D01*
X109582741Y-78606815D02*
X111082741Y-78606815D01*
X111082741Y-78606815D02*
X110868455Y-78749672D01*
X110868455Y-78749672D02*
X110725598Y-78892529D01*
X110725598Y-78892529D02*
X110654170Y-79035386D01*
X107167741Y-115892530D02*
X107953455Y-115892530D01*
X107953455Y-115892530D02*
X108096312Y-115963958D01*
X108096312Y-115963958D02*
X108167741Y-116106815D01*
X108167741Y-116106815D02*
X108167741Y-116392530D01*
X108167741Y-116392530D02*
X108096312Y-116535387D01*
X107239170Y-115892530D02*
X107167741Y-116035387D01*
X107167741Y-116035387D02*
X107167741Y-116392530D01*
X107167741Y-116392530D02*
X107239170Y-116535387D01*
X107239170Y-116535387D02*
X107382027Y-116606815D01*
X107382027Y-116606815D02*
X107524884Y-116606815D01*
X107524884Y-116606815D02*
X107667741Y-116535387D01*
X107667741Y-116535387D02*
X107739170Y-116392530D01*
X107739170Y-116392530D02*
X107739170Y-116035387D01*
X107739170Y-116035387D02*
X107810598Y-115892530D01*
X108167741Y-115178244D02*
X107167741Y-115178244D01*
X108024884Y-115178244D02*
X108096312Y-115106815D01*
X108096312Y-115106815D02*
X108167741Y-114963958D01*
X108167741Y-114963958D02*
X108167741Y-114749672D01*
X108167741Y-114749672D02*
X108096312Y-114606815D01*
X108096312Y-114606815D02*
X107953455Y-114535387D01*
X107953455Y-114535387D02*
X107167741Y-114535387D01*
X107167741Y-113178244D02*
X108667741Y-113178244D01*
X107239170Y-113178244D02*
X107167741Y-113321101D01*
X107167741Y-113321101D02*
X107167741Y-113606815D01*
X107167741Y-113606815D02*
X107239170Y-113749672D01*
X107239170Y-113749672D02*
X107310598Y-113821101D01*
X107310598Y-113821101D02*
X107453455Y-113892529D01*
X107453455Y-113892529D02*
X107882027Y-113892529D01*
X107882027Y-113892529D02*
X108024884Y-113821101D01*
X108024884Y-113821101D02*
X108096312Y-113749672D01*
X108096312Y-113749672D02*
X108167741Y-113606815D01*
X108167741Y-113606815D02*
X108167741Y-113321101D01*
X108167741Y-113321101D02*
X108096312Y-113178244D01*
X108167741Y-110678244D02*
X107167741Y-110678244D01*
X108167741Y-111321101D02*
X107382027Y-111321101D01*
X107382027Y-111321101D02*
X107239170Y-111249672D01*
X107239170Y-111249672D02*
X107167741Y-111106815D01*
X107167741Y-111106815D02*
X107167741Y-110892529D01*
X107167741Y-110892529D02*
X107239170Y-110749672D01*
X107239170Y-110749672D02*
X107310598Y-110678244D01*
X107239170Y-110035386D02*
X107167741Y-109892529D01*
X107167741Y-109892529D02*
X107167741Y-109606815D01*
X107167741Y-109606815D02*
X107239170Y-109463958D01*
X107239170Y-109463958D02*
X107382027Y-109392529D01*
X107382027Y-109392529D02*
X107453455Y-109392529D01*
X107453455Y-109392529D02*
X107596312Y-109463958D01*
X107596312Y-109463958D02*
X107667741Y-109606815D01*
X107667741Y-109606815D02*
X107667741Y-109821101D01*
X107667741Y-109821101D02*
X107739170Y-109963958D01*
X107739170Y-109963958D02*
X107882027Y-110035386D01*
X107882027Y-110035386D02*
X107953455Y-110035386D01*
X107953455Y-110035386D02*
X108096312Y-109963958D01*
X108096312Y-109963958D02*
X108167741Y-109821101D01*
X108167741Y-109821101D02*
X108167741Y-109606815D01*
X108167741Y-109606815D02*
X108096312Y-109463958D01*
X107239170Y-108178243D02*
X107167741Y-108321100D01*
X107167741Y-108321100D02*
X107167741Y-108606815D01*
X107167741Y-108606815D02*
X107239170Y-108749672D01*
X107239170Y-108749672D02*
X107382027Y-108821100D01*
X107382027Y-108821100D02*
X107953455Y-108821100D01*
X107953455Y-108821100D02*
X108096312Y-108749672D01*
X108096312Y-108749672D02*
X108167741Y-108606815D01*
X108167741Y-108606815D02*
X108167741Y-108321100D01*
X108167741Y-108321100D02*
X108096312Y-108178243D01*
X108096312Y-108178243D02*
X107953455Y-108106815D01*
X107953455Y-108106815D02*
X107810598Y-108106815D01*
X107810598Y-108106815D02*
X107667741Y-108821100D01*
X107167741Y-106106815D02*
X107239170Y-106249672D01*
X107239170Y-106249672D02*
X107310598Y-106321101D01*
X107310598Y-106321101D02*
X107453455Y-106392529D01*
X107453455Y-106392529D02*
X107882027Y-106392529D01*
X107882027Y-106392529D02*
X108024884Y-106321101D01*
X108024884Y-106321101D02*
X108096312Y-106249672D01*
X108096312Y-106249672D02*
X108167741Y-106106815D01*
X108167741Y-106106815D02*
X108167741Y-105892529D01*
X108167741Y-105892529D02*
X108096312Y-105749672D01*
X108096312Y-105749672D02*
X108024884Y-105678244D01*
X108024884Y-105678244D02*
X107882027Y-105606815D01*
X107882027Y-105606815D02*
X107453455Y-105606815D01*
X107453455Y-105606815D02*
X107310598Y-105678244D01*
X107310598Y-105678244D02*
X107239170Y-105749672D01*
X107239170Y-105749672D02*
X107167741Y-105892529D01*
X107167741Y-105892529D02*
X107167741Y-106106815D01*
X108167741Y-104963958D02*
X107167741Y-104963958D01*
X108024884Y-104963958D02*
X108096312Y-104892529D01*
X108096312Y-104892529D02*
X108167741Y-104749672D01*
X108167741Y-104749672D02*
X108167741Y-104535386D01*
X108167741Y-104535386D02*
X108096312Y-104392529D01*
X108096312Y-104392529D02*
X107953455Y-104321101D01*
X107953455Y-104321101D02*
X107167741Y-104321101D01*
X107167741Y-103392529D02*
X107239170Y-103535386D01*
X107239170Y-103535386D02*
X107382027Y-103606815D01*
X107382027Y-103606815D02*
X108667741Y-103606815D01*
X108167741Y-102963958D02*
X107167741Y-102606815D01*
X108167741Y-102249672D02*
X107167741Y-102606815D01*
X107167741Y-102606815D02*
X106810598Y-102749672D01*
X106810598Y-102749672D02*
X106739170Y-102821101D01*
X106739170Y-102821101D02*
X106667741Y-102963958D01*
X107167741Y-99892530D02*
X107953455Y-99892530D01*
X107953455Y-99892530D02*
X108096312Y-99963958D01*
X108096312Y-99963958D02*
X108167741Y-100106815D01*
X108167741Y-100106815D02*
X108167741Y-100392530D01*
X108167741Y-100392530D02*
X108096312Y-100535387D01*
X107239170Y-99892530D02*
X107167741Y-100035387D01*
X107167741Y-100035387D02*
X107167741Y-100392530D01*
X107167741Y-100392530D02*
X107239170Y-100535387D01*
X107239170Y-100535387D02*
X107382027Y-100606815D01*
X107382027Y-100606815D02*
X107524884Y-100606815D01*
X107524884Y-100606815D02*
X107667741Y-100535387D01*
X107667741Y-100535387D02*
X107739170Y-100392530D01*
X107739170Y-100392530D02*
X107739170Y-100035387D01*
X107739170Y-100035387D02*
X107810598Y-99892530D01*
X108524884Y-98106815D02*
X108596312Y-98035387D01*
X108596312Y-98035387D02*
X108667741Y-97892530D01*
X108667741Y-97892530D02*
X108667741Y-97535387D01*
X108667741Y-97535387D02*
X108596312Y-97392530D01*
X108596312Y-97392530D02*
X108524884Y-97321101D01*
X108524884Y-97321101D02*
X108382027Y-97249672D01*
X108382027Y-97249672D02*
X108239170Y-97249672D01*
X108239170Y-97249672D02*
X108024884Y-97321101D01*
X108024884Y-97321101D02*
X107167741Y-98178244D01*
X107167741Y-98178244D02*
X107167741Y-97249672D01*
X108167741Y-95463959D02*
X106667741Y-95463959D01*
X108096312Y-95463959D02*
X108167741Y-95321102D01*
X108167741Y-95321102D02*
X108167741Y-95035387D01*
X108167741Y-95035387D02*
X108096312Y-94892530D01*
X108096312Y-94892530D02*
X108024884Y-94821102D01*
X108024884Y-94821102D02*
X107882027Y-94749673D01*
X107882027Y-94749673D02*
X107453455Y-94749673D01*
X107453455Y-94749673D02*
X107310598Y-94821102D01*
X107310598Y-94821102D02*
X107239170Y-94892530D01*
X107239170Y-94892530D02*
X107167741Y-95035387D01*
X107167741Y-95035387D02*
X107167741Y-95321102D01*
X107167741Y-95321102D02*
X107239170Y-95463959D01*
X107167741Y-93892530D02*
X107239170Y-94035387D01*
X107239170Y-94035387D02*
X107310598Y-94106816D01*
X107310598Y-94106816D02*
X107453455Y-94178244D01*
X107453455Y-94178244D02*
X107882027Y-94178244D01*
X107882027Y-94178244D02*
X108024884Y-94106816D01*
X108024884Y-94106816D02*
X108096312Y-94035387D01*
X108096312Y-94035387D02*
X108167741Y-93892530D01*
X108167741Y-93892530D02*
X108167741Y-93678244D01*
X108167741Y-93678244D02*
X108096312Y-93535387D01*
X108096312Y-93535387D02*
X108024884Y-93463959D01*
X108024884Y-93463959D02*
X107882027Y-93392530D01*
X107882027Y-93392530D02*
X107453455Y-93392530D01*
X107453455Y-93392530D02*
X107310598Y-93463959D01*
X107310598Y-93463959D02*
X107239170Y-93535387D01*
X107239170Y-93535387D02*
X107167741Y-93678244D01*
X107167741Y-93678244D02*
X107167741Y-93892530D01*
X107239170Y-92821101D02*
X107167741Y-92678244D01*
X107167741Y-92678244D02*
X107167741Y-92392530D01*
X107167741Y-92392530D02*
X107239170Y-92249673D01*
X107239170Y-92249673D02*
X107382027Y-92178244D01*
X107382027Y-92178244D02*
X107453455Y-92178244D01*
X107453455Y-92178244D02*
X107596312Y-92249673D01*
X107596312Y-92249673D02*
X107667741Y-92392530D01*
X107667741Y-92392530D02*
X107667741Y-92606816D01*
X107667741Y-92606816D02*
X107739170Y-92749673D01*
X107739170Y-92749673D02*
X107882027Y-92821101D01*
X107882027Y-92821101D02*
X107953455Y-92821101D01*
X107953455Y-92821101D02*
X108096312Y-92749673D01*
X108096312Y-92749673D02*
X108167741Y-92606816D01*
X108167741Y-92606816D02*
X108167741Y-92392530D01*
X108167741Y-92392530D02*
X108096312Y-92249673D01*
X107167741Y-91535387D02*
X108167741Y-91535387D01*
X108667741Y-91535387D02*
X108596312Y-91606815D01*
X108596312Y-91606815D02*
X108524884Y-91535387D01*
X108524884Y-91535387D02*
X108596312Y-91463958D01*
X108596312Y-91463958D02*
X108667741Y-91535387D01*
X108667741Y-91535387D02*
X108524884Y-91535387D01*
X108167741Y-91035386D02*
X108167741Y-90463958D01*
X108667741Y-90821101D02*
X107382027Y-90821101D01*
X107382027Y-90821101D02*
X107239170Y-90749672D01*
X107239170Y-90749672D02*
X107167741Y-90606815D01*
X107167741Y-90606815D02*
X107167741Y-90463958D01*
X107167741Y-89963958D02*
X108167741Y-89963958D01*
X108667741Y-89963958D02*
X108596312Y-90035386D01*
X108596312Y-90035386D02*
X108524884Y-89963958D01*
X108524884Y-89963958D02*
X108596312Y-89892529D01*
X108596312Y-89892529D02*
X108667741Y-89963958D01*
X108667741Y-89963958D02*
X108524884Y-89963958D01*
X107167741Y-89035386D02*
X107239170Y-89178243D01*
X107239170Y-89178243D02*
X107310598Y-89249672D01*
X107310598Y-89249672D02*
X107453455Y-89321100D01*
X107453455Y-89321100D02*
X107882027Y-89321100D01*
X107882027Y-89321100D02*
X108024884Y-89249672D01*
X108024884Y-89249672D02*
X108096312Y-89178243D01*
X108096312Y-89178243D02*
X108167741Y-89035386D01*
X108167741Y-89035386D02*
X108167741Y-88821100D01*
X108167741Y-88821100D02*
X108096312Y-88678243D01*
X108096312Y-88678243D02*
X108024884Y-88606815D01*
X108024884Y-88606815D02*
X107882027Y-88535386D01*
X107882027Y-88535386D02*
X107453455Y-88535386D01*
X107453455Y-88535386D02*
X107310598Y-88606815D01*
X107310598Y-88606815D02*
X107239170Y-88678243D01*
X107239170Y-88678243D02*
X107167741Y-88821100D01*
X107167741Y-88821100D02*
X107167741Y-89035386D01*
X108167741Y-87892529D02*
X107167741Y-87892529D01*
X108024884Y-87892529D02*
X108096312Y-87821100D01*
X108096312Y-87821100D02*
X108167741Y-87678243D01*
X108167741Y-87678243D02*
X108167741Y-87463957D01*
X108167741Y-87463957D02*
X108096312Y-87321100D01*
X108096312Y-87321100D02*
X107953455Y-87249672D01*
X107953455Y-87249672D02*
X107167741Y-87249672D01*
X107167741Y-85392529D02*
X108667741Y-85392529D01*
X108667741Y-85392529D02*
X108667741Y-85035386D01*
X108667741Y-85035386D02*
X108596312Y-84821100D01*
X108596312Y-84821100D02*
X108453455Y-84678243D01*
X108453455Y-84678243D02*
X108310598Y-84606814D01*
X108310598Y-84606814D02*
X108024884Y-84535386D01*
X108024884Y-84535386D02*
X107810598Y-84535386D01*
X107810598Y-84535386D02*
X107524884Y-84606814D01*
X107524884Y-84606814D02*
X107382027Y-84678243D01*
X107382027Y-84678243D02*
X107239170Y-84821100D01*
X107239170Y-84821100D02*
X107167741Y-85035386D01*
X107167741Y-85035386D02*
X107167741Y-85392529D01*
X107167741Y-83892529D02*
X108667741Y-83892529D01*
X107167741Y-83178243D02*
X108667741Y-83178243D01*
X108667741Y-83178243D02*
X108667741Y-82606814D01*
X108667741Y-82606814D02*
X108596312Y-82463957D01*
X108596312Y-82463957D02*
X108524884Y-82392528D01*
X108524884Y-82392528D02*
X108382027Y-82321100D01*
X108382027Y-82321100D02*
X108167741Y-82321100D01*
X108167741Y-82321100D02*
X108024884Y-82392528D01*
X108024884Y-82392528D02*
X107953455Y-82463957D01*
X107953455Y-82463957D02*
X107882027Y-82606814D01*
X107882027Y-82606814D02*
X107882027Y-83178243D01*
X107239170Y-80606814D02*
X107167741Y-80392529D01*
X107167741Y-80392529D02*
X107167741Y-80035386D01*
X107167741Y-80035386D02*
X107239170Y-79892529D01*
X107239170Y-79892529D02*
X107310598Y-79821100D01*
X107310598Y-79821100D02*
X107453455Y-79749671D01*
X107453455Y-79749671D02*
X107596312Y-79749671D01*
X107596312Y-79749671D02*
X107739170Y-79821100D01*
X107739170Y-79821100D02*
X107810598Y-79892529D01*
X107810598Y-79892529D02*
X107882027Y-80035386D01*
X107882027Y-80035386D02*
X107953455Y-80321100D01*
X107953455Y-80321100D02*
X108024884Y-80463957D01*
X108024884Y-80463957D02*
X108096312Y-80535386D01*
X108096312Y-80535386D02*
X108239170Y-80606814D01*
X108239170Y-80606814D02*
X108382027Y-80606814D01*
X108382027Y-80606814D02*
X108524884Y-80535386D01*
X108524884Y-80535386D02*
X108596312Y-80463957D01*
X108596312Y-80463957D02*
X108667741Y-80321100D01*
X108667741Y-80321100D02*
X108667741Y-79963957D01*
X108667741Y-79963957D02*
X108596312Y-79749671D01*
X108667741Y-79249672D02*
X107167741Y-78892529D01*
X107167741Y-78892529D02*
X108239170Y-78606815D01*
X108239170Y-78606815D02*
X107167741Y-78321100D01*
X107167741Y-78321100D02*
X108667741Y-77963958D01*
X107167741Y-77392529D02*
X108667741Y-77392529D01*
X108667741Y-76892528D02*
X108667741Y-76035386D01*
X107167741Y-76463957D02*
X108667741Y-76463957D01*
X107310598Y-74678243D02*
X107239170Y-74749671D01*
X107239170Y-74749671D02*
X107167741Y-74963957D01*
X107167741Y-74963957D02*
X107167741Y-75106814D01*
X107167741Y-75106814D02*
X107239170Y-75321100D01*
X107239170Y-75321100D02*
X107382027Y-75463957D01*
X107382027Y-75463957D02*
X107524884Y-75535386D01*
X107524884Y-75535386D02*
X107810598Y-75606814D01*
X107810598Y-75606814D02*
X108024884Y-75606814D01*
X108024884Y-75606814D02*
X108310598Y-75535386D01*
X108310598Y-75535386D02*
X108453455Y-75463957D01*
X108453455Y-75463957D02*
X108596312Y-75321100D01*
X108596312Y-75321100D02*
X108667741Y-75106814D01*
X108667741Y-75106814D02*
X108667741Y-74963957D01*
X108667741Y-74963957D02*
X108596312Y-74749671D01*
X108596312Y-74749671D02*
X108524884Y-74678243D01*
X107167741Y-74035386D02*
X108667741Y-74035386D01*
X107953455Y-74035386D02*
X107953455Y-73178243D01*
X107167741Y-73178243D02*
X108667741Y-73178243D01*
X104752741Y-116321101D02*
X104824170Y-116463958D01*
X104824170Y-116463958D02*
X104895598Y-116535387D01*
X104895598Y-116535387D02*
X105038455Y-116606815D01*
X105038455Y-116606815D02*
X105467027Y-116606815D01*
X105467027Y-116606815D02*
X105609884Y-116535387D01*
X105609884Y-116535387D02*
X105681312Y-116463958D01*
X105681312Y-116463958D02*
X105752741Y-116321101D01*
X105752741Y-116321101D02*
X105752741Y-116106815D01*
X105752741Y-116106815D02*
X105681312Y-115963958D01*
X105681312Y-115963958D02*
X105609884Y-115892530D01*
X105609884Y-115892530D02*
X105467027Y-115821101D01*
X105467027Y-115821101D02*
X105038455Y-115821101D01*
X105038455Y-115821101D02*
X104895598Y-115892530D01*
X104895598Y-115892530D02*
X104824170Y-115963958D01*
X104824170Y-115963958D02*
X104752741Y-116106815D01*
X104752741Y-116106815D02*
X104752741Y-116321101D01*
X105752741Y-115178244D02*
X104752741Y-115178244D01*
X105609884Y-115178244D02*
X105681312Y-115106815D01*
X105681312Y-115106815D02*
X105752741Y-114963958D01*
X105752741Y-114963958D02*
X105752741Y-114749672D01*
X105752741Y-114749672D02*
X105681312Y-114606815D01*
X105681312Y-114606815D02*
X105538455Y-114535387D01*
X105538455Y-114535387D02*
X104752741Y-114535387D01*
X104752741Y-112678244D02*
X106252741Y-112678244D01*
X106252741Y-112678244D02*
X106252741Y-112321101D01*
X106252741Y-112321101D02*
X106181312Y-112106815D01*
X106181312Y-112106815D02*
X106038455Y-111963958D01*
X106038455Y-111963958D02*
X105895598Y-111892529D01*
X105895598Y-111892529D02*
X105609884Y-111821101D01*
X105609884Y-111821101D02*
X105395598Y-111821101D01*
X105395598Y-111821101D02*
X105109884Y-111892529D01*
X105109884Y-111892529D02*
X104967027Y-111963958D01*
X104967027Y-111963958D02*
X104824170Y-112106815D01*
X104824170Y-112106815D02*
X104752741Y-112321101D01*
X104752741Y-112321101D02*
X104752741Y-112678244D01*
X106109884Y-111249672D02*
X106181312Y-111178244D01*
X106181312Y-111178244D02*
X106252741Y-111035387D01*
X106252741Y-111035387D02*
X106252741Y-110678244D01*
X106252741Y-110678244D02*
X106181312Y-110535387D01*
X106181312Y-110535387D02*
X106109884Y-110463958D01*
X106109884Y-110463958D02*
X105967027Y-110392529D01*
X105967027Y-110392529D02*
X105824170Y-110392529D01*
X105824170Y-110392529D02*
X105609884Y-110463958D01*
X105609884Y-110463958D02*
X104752741Y-111321101D01*
X104752741Y-111321101D02*
X104752741Y-110392529D01*
X104752741Y-108606816D02*
X106252741Y-108606816D01*
X106252741Y-108606816D02*
X106252741Y-108249673D01*
X106252741Y-108249673D02*
X106181312Y-108035387D01*
X106181312Y-108035387D02*
X106038455Y-107892530D01*
X106038455Y-107892530D02*
X105895598Y-107821101D01*
X105895598Y-107821101D02*
X105609884Y-107749673D01*
X105609884Y-107749673D02*
X105395598Y-107749673D01*
X105395598Y-107749673D02*
X105109884Y-107821101D01*
X105109884Y-107821101D02*
X104967027Y-107892530D01*
X104967027Y-107892530D02*
X104824170Y-108035387D01*
X104824170Y-108035387D02*
X104752741Y-108249673D01*
X104752741Y-108249673D02*
X104752741Y-108606816D01*
X106252741Y-107249673D02*
X106252741Y-106321101D01*
X106252741Y-106321101D02*
X105681312Y-106821101D01*
X105681312Y-106821101D02*
X105681312Y-106606816D01*
X105681312Y-106606816D02*
X105609884Y-106463959D01*
X105609884Y-106463959D02*
X105538455Y-106392530D01*
X105538455Y-106392530D02*
X105395598Y-106321101D01*
X105395598Y-106321101D02*
X105038455Y-106321101D01*
X105038455Y-106321101D02*
X104895598Y-106392530D01*
X104895598Y-106392530D02*
X104824170Y-106463959D01*
X104824170Y-106463959D02*
X104752741Y-106606816D01*
X104752741Y-106606816D02*
X104752741Y-107035387D01*
X104752741Y-107035387D02*
X104824170Y-107178244D01*
X104824170Y-107178244D02*
X104895598Y-107249673D01*
M02*
