M48
; DRILL file {KiCad 7.0.8} date Mon Mar  4 19:10:56 2024
; FORMAT={-:-/ absolute / inch / decimal}
; #@! TF.CreationDate,2024-03-04T19:10:56+02:00
; #@! TF.GenerationSoftware,Kicad,Pcbnew,7.0.8
; #@! TF.FileFunction,Plated,1,2,PTH
FMAT,2
INCH
; #@! TA.AperFunction,Plated,PTH,ViaDrill
T1C0.0157
; #@! TA.AperFunction,Plated,PTH,ComponentDrill
T2C0.0315
%
G90
G05
T1
X4.1911Y-2.8325
X4.4192Y-3.9114
X4.6314Y-2.7318
X4.8275Y-2.9315
X4.8425Y-3.2779
X4.8975Y-2.932
X4.8977Y-3.2227
X4.9568Y-3.0653
T2
X4.7143Y-3.0062
X4.7143Y-3.1062
X4.7143Y-3.2062
X4.7143Y-3.3062
X4.7143Y-3.4062
X4.7143Y-3.5062
X4.7143Y-3.6062
X4.7143Y-3.7062
X4.7143Y-3.8062
X4.7143Y-3.9062
X4.7143Y-4.0062
X4.7143Y-4.1062
X4.7143Y-4.2062
X4.7143Y-4.3062
X4.7181Y-2.2638
X4.7181Y-2.4016
X4.7181Y-2.5394
X5.1181Y-2.2638
X5.1181Y-2.4016
X5.1181Y-2.5394
X5.3143Y-3.0062
X5.3143Y-3.1062
X5.3143Y-3.2062
X5.3143Y-3.3062
X5.3143Y-3.4062
X5.3143Y-3.5062
X5.3143Y-3.6062
X5.3143Y-3.7062
X5.3143Y-3.8062
X5.3143Y-3.9062
X5.3143Y-4.0062
X5.3143Y-4.1062
X5.3143Y-4.2062
X5.3143Y-4.3062
X5.5052Y-2.3687
X5.5052Y-2.4687
X5.5052Y-2.5687
X5.8052Y-2.3687
X5.8052Y-2.4687
X5.8052Y-2.5687
T0
M30
