G04 #@! TF.GenerationSoftware,KiCad,Pcbnew,7.0.8*
G04 #@! TF.CreationDate,2024-03-04T19:11:00+02:00*
G04 #@! TF.ProjectId,radofin,7261646f-6669-46e2-9e6b-696361645f70,rev?*
G04 #@! TF.SameCoordinates,Original*
G04 #@! TF.FileFunction,Copper,L1,Top*
G04 #@! TF.FilePolarity,Positive*
%FSLAX46Y46*%
G04 Gerber Fmt 4.6, Leading zero omitted, Abs format (unit mm)*
G04 Created by KiCad (PCBNEW 7.0.8) date 2024-03-04 19:11:00*
%MOMM*%
%LPD*%
G01*
G04 APERTURE LIST*
G04 #@! TA.AperFunction,ComponentPad*
%ADD10R,1.600000X1.600000*%
G04 #@! TD*
G04 #@! TA.AperFunction,ComponentPad*
%ADD11O,1.600000X1.600000*%
G04 #@! TD*
G04 #@! TA.AperFunction,SMDPad,CuDef*
%ADD12R,9.000000X2.400000*%
G04 #@! TD*
G04 #@! TA.AperFunction,ComponentPad*
%ADD13C,1.600000*%
G04 #@! TD*
G04 #@! TA.AperFunction,ViaPad*
%ADD14C,0.800000*%
G04 #@! TD*
G04 #@! TA.AperFunction,Conductor*
%ADD15C,0.800000*%
G04 #@! TD*
G04 APERTURE END LIST*
D10*
G04 #@! TO.P,U1,1,VPP*
G04 #@! TO.N,/VPP*
X134982800Y-109376400D03*
D11*
G04 #@! TO.P,U1,2,A12*
G04 #@! TO.N,/A12*
X134982800Y-106836400D03*
G04 #@! TO.P,U1,3,A7*
G04 #@! TO.N,/A7*
X134982800Y-104296400D03*
G04 #@! TO.P,U1,4,A6*
G04 #@! TO.N,/A6*
X134982800Y-101756400D03*
G04 #@! TO.P,U1,5,A5*
G04 #@! TO.N,/A5*
X134982800Y-99216400D03*
G04 #@! TO.P,U1,6,A4*
G04 #@! TO.N,/A4*
X134982800Y-96676400D03*
G04 #@! TO.P,U1,7,A3*
G04 #@! TO.N,/A3*
X134982800Y-94136400D03*
G04 #@! TO.P,U1,8,A2*
G04 #@! TO.N,/A2*
X134982800Y-91596400D03*
G04 #@! TO.P,U1,9,A1*
G04 #@! TO.N,/A1*
X134982800Y-89056400D03*
G04 #@! TO.P,U1,10,A0*
G04 #@! TO.N,/A0*
X134982800Y-86516400D03*
G04 #@! TO.P,U1,11,D0*
G04 #@! TO.N,/D0*
X134982800Y-83976400D03*
G04 #@! TO.P,U1,12,D1*
G04 #@! TO.N,/D1*
X134982800Y-81436400D03*
G04 #@! TO.P,U1,13,D2*
G04 #@! TO.N,/D2*
X134982800Y-78896400D03*
G04 #@! TO.P,U1,14,GND*
G04 #@! TO.N,GND*
X134982800Y-76356400D03*
G04 #@! TO.P,U1,15,D3*
G04 #@! TO.N,/D3*
X119742800Y-76356400D03*
G04 #@! TO.P,U1,16,D4*
G04 #@! TO.N,/D4*
X119742800Y-78896400D03*
G04 #@! TO.P,U1,17,D5*
G04 #@! TO.N,/D5*
X119742800Y-81436400D03*
G04 #@! TO.P,U1,18,D6*
G04 #@! TO.N,/D6*
X119742800Y-83976400D03*
G04 #@! TO.P,U1,19,D7*
G04 #@! TO.N,/D7*
X119742800Y-86516400D03*
G04 #@! TO.P,U1,20,~{CE}*
G04 #@! TO.N,GND*
X119742800Y-89056400D03*
G04 #@! TO.P,U1,21,A10*
G04 #@! TO.N,/A10*
X119742800Y-91596400D03*
G04 #@! TO.P,U1,22,~{OE}*
G04 #@! TO.N,GND*
X119742800Y-94136400D03*
G04 #@! TO.P,U1,23,A11*
G04 #@! TO.N,/A11*
X119742800Y-96676400D03*
G04 #@! TO.P,U1,24,A9*
G04 #@! TO.N,/A9*
X119742800Y-99216400D03*
G04 #@! TO.P,U1,25,A8*
G04 #@! TO.N,/A8*
X119742800Y-101756400D03*
G04 #@! TO.P,U1,26,A13*
G04 #@! TO.N,/A13*
X119742800Y-104296400D03*
G04 #@! TO.P,U1,27,~{PGM}*
G04 #@! TO.N,/{slash}PGM*
X119742800Y-106836400D03*
G04 #@! TO.P,U1,28,VCC*
G04 #@! TO.N,VCC*
X119742800Y-109376400D03*
G04 #@! TD*
D12*
G04 #@! TO.P,J1,1,Pin_1*
G04 #@! TO.N,/A7*
X88828300Y-115188600D03*
G04 #@! TO.P,J1,2,Pin_2*
G04 #@! TO.N,unconnected-(J1-Pin_2-Pad2)*
X88828300Y-111228600D03*
G04 #@! TO.P,J1,3,Pin_3*
G04 #@! TO.N,/A8*
X88828300Y-107268600D03*
G04 #@! TO.P,J1,4,Pin_4*
G04 #@! TO.N,/A9*
X88828300Y-103308600D03*
G04 #@! TO.P,J1,5,Pin_5*
G04 #@! TO.N,/A10*
X88828300Y-99348600D03*
G04 #@! TO.P,J1,6,Pin_6*
G04 #@! TO.N,/A11*
X88828300Y-95388600D03*
G04 #@! TO.P,J1,7,Pin_7*
G04 #@! TO.N,unconnected-(J1-Pin_7-Pad7)*
X88828300Y-91428600D03*
G04 #@! TO.P,J1,8,Pin_8*
G04 #@! TO.N,/D7*
X88828300Y-87468600D03*
G04 #@! TO.P,J1,9,Pin_9*
G04 #@! TO.N,/D6*
X88828300Y-83508600D03*
G04 #@! TO.P,J1,10,Pin_10*
G04 #@! TO.N,/D5*
X88828300Y-79548600D03*
G04 #@! TO.P,J1,11,Pin_11*
G04 #@! TO.N,/D4*
X88828300Y-75588600D03*
G04 #@! TO.P,J1,12,Pin_12*
G04 #@! TO.N,/D3*
X88828300Y-71628600D03*
G04 #@! TO.P,J1,13,Pin_13*
G04 #@! TO.N,/D2*
X88828300Y-67668600D03*
G04 #@! TO.P,J1,14,Pin_14*
G04 #@! TO.N,/D1*
X88828300Y-63708600D03*
G04 #@! TO.P,J1,15,Pin_15*
G04 #@! TO.N,/D0*
X88828300Y-59748600D03*
G04 #@! TO.P,J1,16,Pin_16*
G04 #@! TO.N,/{slash}PGM*
X88828300Y-55788600D03*
G04 #@! TD*
D10*
G04 #@! TO.P,SW2,1*
G04 #@! TO.N,GND*
X147452700Y-65245600D03*
D11*
G04 #@! TO.P,SW2,2*
X147452700Y-62705600D03*
G04 #@! TO.P,SW2,3*
X147452700Y-60165600D03*
G04 #@! TO.P,SW2,4*
G04 #@! TO.N,/A13*
X139832700Y-60165600D03*
G04 #@! TO.P,SW2,5*
G04 #@! TO.N,/A12*
X139832700Y-62705600D03*
G04 #@! TO.P,SW2,6*
G04 #@! TO.N,/A11*
X139832700Y-65245600D03*
G04 #@! TD*
D13*
G04 #@! TO.P,R2,1*
G04 #@! TO.N,/A12*
X130000000Y-61000000D03*
D11*
G04 #@! TO.P,R2,2*
G04 #@! TO.N,VCC*
X119840000Y-61000000D03*
G04 #@! TD*
D13*
G04 #@! TO.P,R1,1*
G04 #@! TO.N,/A11*
X130000000Y-64500000D03*
D11*
G04 #@! TO.P,R1,2*
G04 #@! TO.N,VCC*
X119840000Y-64500000D03*
G04 #@! TD*
D13*
G04 #@! TO.P,R3,1*
G04 #@! TO.N,/A13*
X130000000Y-57500000D03*
D11*
G04 #@! TO.P,R3,2*
G04 #@! TO.N,VCC*
X119840000Y-57500000D03*
G04 #@! TD*
D14*
G04 #@! TO.N,VCC*
X122618200Y-74460300D03*
G04 #@! TO.N,GND*
X122998900Y-83259200D03*
G04 #@! TO.N,/D2*
X106453234Y-71945300D03*
G04 #@! TO.N,/D0*
X117637950Y-69388950D03*
G04 #@! TO.N,/A10*
X112248806Y-99348600D03*
G04 #@! TO.N,/A11*
X124402000Y-81856000D03*
G04 #@! TO.N,/{slash}PGM*
X124397600Y-74473100D03*
G04 #@! TO.N,/A13*
X125902900Y-77858200D03*
G04 #@! TD*
D15*
G04 #@! TO.N,VCC*
X122618200Y-71760300D02*
X122618200Y-74460300D01*
X119840000Y-68982100D02*
X119840000Y-57500000D01*
X119840000Y-68982100D02*
X122618200Y-71760300D01*
G04 #@! TO.N,GND*
X136341900Y-74656300D02*
X134982800Y-74656300D01*
X145752600Y-65245600D02*
X136341900Y-74656300D01*
X134982800Y-76356400D02*
X133282700Y-76356400D01*
X134982800Y-76356400D02*
X134982800Y-74656300D01*
X122998900Y-83259200D02*
X126379900Y-83259200D01*
X147452700Y-65245600D02*
X145752600Y-65245600D01*
X126379900Y-83259200D02*
X133282700Y-76356400D01*
G04 #@! TO.N,/D2*
X92799029Y-67668600D02*
X88828300Y-67668600D01*
X94003777Y-68781249D02*
X93911678Y-68781249D01*
X106453234Y-71945300D02*
X97167828Y-71945300D01*
X93911678Y-68781249D02*
X92799029Y-67668600D01*
X97167828Y-71945300D02*
X94003777Y-68781249D01*
G04 #@! TO.N,/D1*
X122454600Y-84583500D02*
X130135600Y-84583500D01*
X121450000Y-75657900D02*
X121450000Y-83578900D01*
X121450000Y-83578900D02*
X122454600Y-84583500D01*
X88828300Y-63708600D02*
X109500700Y-63708600D01*
X134982800Y-81436400D02*
X133282700Y-81436400D01*
X130135600Y-84583500D02*
X133282700Y-81436400D01*
X109500700Y-63708600D02*
X121450000Y-75657900D01*
G04 #@! TO.N,/D0*
X117637950Y-69388950D02*
X107997600Y-59748600D01*
X107997600Y-59748600D02*
X88828300Y-59748600D01*
G04 #@! TO.N,/A7*
X134982800Y-104296400D02*
X133282700Y-104296400D01*
X122390500Y-115188600D02*
X133282700Y-104296400D01*
X88828300Y-115188600D02*
X122390500Y-115188600D01*
G04 #@! TO.N,/A8*
X112530500Y-107268600D02*
X118042700Y-101756400D01*
X88828300Y-107268600D02*
X112530500Y-107268600D01*
X119742800Y-101756400D02*
X118042700Y-101756400D01*
G04 #@! TO.N,/A9*
X119742800Y-99216400D02*
X117078046Y-99216400D01*
X117078046Y-99216400D02*
X112976136Y-103318310D01*
X88838010Y-103318310D02*
X88828300Y-103308600D01*
X112976136Y-103318310D02*
X88838010Y-103318310D01*
G04 #@! TO.N,/A10*
X112248806Y-99348600D02*
X88828300Y-99348600D01*
G04 #@! TO.N,/A11*
X130000000Y-76258000D02*
X130000000Y-64500000D01*
X130000000Y-76258000D02*
X124402000Y-81856000D01*
X119742800Y-96676400D02*
X118042700Y-96676400D01*
X130000000Y-64500000D02*
X139087100Y-64500000D01*
X118042700Y-96676400D02*
X116754900Y-95388600D01*
X116754900Y-95388600D02*
X88828300Y-95388600D01*
X139087100Y-64500000D02*
X139832700Y-65245600D01*
G04 #@! TO.N,/D7*
X89780500Y-86516400D02*
X119742800Y-86516400D01*
X88828300Y-87468600D02*
X89780500Y-86516400D01*
G04 #@! TO.N,/D6*
X89296100Y-83976400D02*
X119742800Y-83976400D01*
X88828300Y-83508600D02*
X89296100Y-83976400D01*
G04 #@! TO.N,/D5*
X96116200Y-81436400D02*
X119742800Y-81436400D01*
X88828300Y-79548600D02*
X94228400Y-79548600D01*
X94228400Y-79548600D02*
X96116200Y-81436400D01*
G04 #@! TO.N,/D4*
X97536200Y-78896400D02*
X119742800Y-78896400D01*
X88828300Y-75588600D02*
X94228400Y-75588600D01*
X94228400Y-75588600D02*
X97536200Y-78896400D01*
G04 #@! TO.N,/D3*
X98171271Y-76356400D02*
X119742800Y-76356400D01*
X93443471Y-71628600D02*
X98171271Y-76356400D01*
X88828300Y-71628600D02*
X93443471Y-71628600D01*
G04 #@! TO.N,/{slash}PGM*
X124397600Y-57807349D02*
X124397600Y-74473100D01*
X122378851Y-55788600D02*
X124397600Y-57807349D01*
X88828300Y-55788600D02*
X122378851Y-55788600D01*
G04 #@! TO.N,/A12*
X131705600Y-62705600D02*
X130000000Y-61000000D01*
X139832700Y-62705600D02*
X131705600Y-62705600D01*
X139409100Y-62282000D02*
X139832700Y-62705600D01*
G04 #@! TO.N,/A13*
X139832700Y-60165600D02*
X138132600Y-60165600D01*
X125902900Y-62257800D02*
X130000000Y-58160700D01*
X136127700Y-58160700D02*
X138132600Y-60165600D01*
X125902900Y-77858200D02*
X125902900Y-62257800D01*
X130000000Y-57282000D02*
X130000000Y-58160700D01*
X130000000Y-58160700D02*
X136127700Y-58160700D01*
G04 #@! TD*
M02*
