G04 #@! TF.GenerationSoftware,KiCad,Pcbnew,7.0.8*
G04 #@! TF.CreationDate,2024-03-04T19:11:00+02:00*
G04 #@! TF.ProjectId,radofin,7261646f-6669-46e2-9e6b-696361645f70,rev?*
G04 #@! TF.SameCoordinates,Original*
G04 #@! TF.FileFunction,Copper,L2,Bot*
G04 #@! TF.FilePolarity,Positive*
%FSLAX46Y46*%
G04 Gerber Fmt 4.6, Leading zero omitted, Abs format (unit mm)*
G04 Created by KiCad (PCBNEW 7.0.8) date 2024-03-04 19:11:00*
%MOMM*%
%LPD*%
G01*
G04 APERTURE LIST*
G04 #@! TA.AperFunction,ComponentPad*
%ADD10R,1.600000X1.600000*%
G04 #@! TD*
G04 #@! TA.AperFunction,ComponentPad*
%ADD11O,1.600000X1.600000*%
G04 #@! TD*
G04 #@! TA.AperFunction,SMDPad,CuDef*
%ADD12R,9.000000X2.400000*%
G04 #@! TD*
G04 #@! TA.AperFunction,ComponentPad*
%ADD13C,1.600000*%
G04 #@! TD*
G04 #@! TA.AperFunction,ViaPad*
%ADD14C,0.800000*%
G04 #@! TD*
G04 #@! TA.AperFunction,Conductor*
%ADD15C,0.800000*%
G04 #@! TD*
G04 APERTURE END LIST*
D10*
G04 #@! TO.P,U1,1,VPP*
G04 #@! TO.N,/VPP*
X134982800Y-109376400D03*
D11*
G04 #@! TO.P,U1,2,A12*
G04 #@! TO.N,/A12*
X134982800Y-106836400D03*
G04 #@! TO.P,U1,3,A7*
G04 #@! TO.N,/A7*
X134982800Y-104296400D03*
G04 #@! TO.P,U1,4,A6*
G04 #@! TO.N,/A6*
X134982800Y-101756400D03*
G04 #@! TO.P,U1,5,A5*
G04 #@! TO.N,/A5*
X134982800Y-99216400D03*
G04 #@! TO.P,U1,6,A4*
G04 #@! TO.N,/A4*
X134982800Y-96676400D03*
G04 #@! TO.P,U1,7,A3*
G04 #@! TO.N,/A3*
X134982800Y-94136400D03*
G04 #@! TO.P,U1,8,A2*
G04 #@! TO.N,/A2*
X134982800Y-91596400D03*
G04 #@! TO.P,U1,9,A1*
G04 #@! TO.N,/A1*
X134982800Y-89056400D03*
G04 #@! TO.P,U1,10,A0*
G04 #@! TO.N,/A0*
X134982800Y-86516400D03*
G04 #@! TO.P,U1,11,D0*
G04 #@! TO.N,/D0*
X134982800Y-83976400D03*
G04 #@! TO.P,U1,12,D1*
G04 #@! TO.N,/D1*
X134982800Y-81436400D03*
G04 #@! TO.P,U1,13,D2*
G04 #@! TO.N,/D2*
X134982800Y-78896400D03*
G04 #@! TO.P,U1,14,GND*
G04 #@! TO.N,GND*
X134982800Y-76356400D03*
G04 #@! TO.P,U1,15,D3*
G04 #@! TO.N,/D3*
X119742800Y-76356400D03*
G04 #@! TO.P,U1,16,D4*
G04 #@! TO.N,/D4*
X119742800Y-78896400D03*
G04 #@! TO.P,U1,17,D5*
G04 #@! TO.N,/D5*
X119742800Y-81436400D03*
G04 #@! TO.P,U1,18,D6*
G04 #@! TO.N,/D6*
X119742800Y-83976400D03*
G04 #@! TO.P,U1,19,D7*
G04 #@! TO.N,/D7*
X119742800Y-86516400D03*
G04 #@! TO.P,U1,20,~{CE}*
G04 #@! TO.N,GND*
X119742800Y-89056400D03*
G04 #@! TO.P,U1,21,A10*
G04 #@! TO.N,/A10*
X119742800Y-91596400D03*
G04 #@! TO.P,U1,22,~{OE}*
G04 #@! TO.N,GND*
X119742800Y-94136400D03*
G04 #@! TO.P,U1,23,A11*
G04 #@! TO.N,/A11*
X119742800Y-96676400D03*
G04 #@! TO.P,U1,24,A9*
G04 #@! TO.N,/A9*
X119742800Y-99216400D03*
G04 #@! TO.P,U1,25,A8*
G04 #@! TO.N,/A8*
X119742800Y-101756400D03*
G04 #@! TO.P,U1,26,A13*
G04 #@! TO.N,/A13*
X119742800Y-104296400D03*
G04 #@! TO.P,U1,27,~{PGM}*
G04 #@! TO.N,/{slash}PGM*
X119742800Y-106836400D03*
G04 #@! TO.P,U1,28,VCC*
G04 #@! TO.N,VCC*
X119742800Y-109376400D03*
G04 #@! TD*
D12*
G04 #@! TO.P,J1,17,Pin_17*
G04 #@! TO.N,GND*
X88828300Y-55788600D03*
G04 #@! TO.P,J1,18,Pin_18*
G04 #@! TO.N,/VPP*
X88828300Y-59748600D03*
G04 #@! TO.P,J1,19,Pin_19*
G04 #@! TO.N,unconnected-(J1-Pin_19-Pad19)*
X88828300Y-63708600D03*
G04 #@! TO.P,J1,20,Pin_20*
G04 #@! TO.N,unconnected-(J1-Pin_20-Pad20)*
X88828300Y-67668600D03*
G04 #@! TO.P,J1,21,Pin_21*
G04 #@! TO.N,unconnected-(J1-Pin_21-Pad21)*
X88828300Y-71628600D03*
G04 #@! TO.P,J1,22,Pin_22*
G04 #@! TO.N,unconnected-(J1-Pin_22-Pad22)*
X88828300Y-75588600D03*
G04 #@! TO.P,J1,23,Pin_23*
G04 #@! TO.N,VCC*
X88828300Y-79548600D03*
G04 #@! TO.P,J1,24,Pin_24*
G04 #@! TO.N,unconnected-(J1-Pin_24-Pad24)*
X88828300Y-83508600D03*
G04 #@! TO.P,J1,25,Pin_25*
G04 #@! TO.N,unconnected-(J1-Pin_25-Pad25)*
X88828300Y-87468600D03*
G04 #@! TO.P,J1,26,Pin_26*
G04 #@! TO.N,/A0*
X88828300Y-91428600D03*
G04 #@! TO.P,J1,27,Pin_27*
G04 #@! TO.N,/A1*
X88828300Y-95388600D03*
G04 #@! TO.P,J1,28,Pin_28*
G04 #@! TO.N,/A2*
X88828300Y-99348600D03*
G04 #@! TO.P,J1,29,Pin_29*
G04 #@! TO.N,/A3*
X88828300Y-103308600D03*
G04 #@! TO.P,J1,30,Pin_30*
G04 #@! TO.N,/A4*
X88828300Y-107268600D03*
G04 #@! TO.P,J1,31,Pin_31*
G04 #@! TO.N,/A5*
X88828300Y-111228600D03*
G04 #@! TO.P,J1,32,Pin_32*
G04 #@! TO.N,/A6*
X88828300Y-115188600D03*
G04 #@! TD*
D10*
G04 #@! TO.P,SW2,1*
G04 #@! TO.N,GND*
X147452700Y-65245600D03*
D11*
G04 #@! TO.P,SW2,2*
X147452700Y-62705600D03*
G04 #@! TO.P,SW2,3*
X147452700Y-60165600D03*
G04 #@! TO.P,SW2,4*
G04 #@! TO.N,/A13*
X139832700Y-60165600D03*
G04 #@! TO.P,SW2,5*
G04 #@! TO.N,/A12*
X139832700Y-62705600D03*
G04 #@! TO.P,SW2,6*
G04 #@! TO.N,/A11*
X139832700Y-65245600D03*
G04 #@! TD*
D13*
G04 #@! TO.P,R2,1*
G04 #@! TO.N,/A12*
X130000000Y-61000000D03*
D11*
G04 #@! TO.P,R2,2*
G04 #@! TO.N,VCC*
X119840000Y-61000000D03*
G04 #@! TD*
D13*
G04 #@! TO.P,R1,1*
G04 #@! TO.N,/A11*
X130000000Y-64500000D03*
D11*
G04 #@! TO.P,R1,2*
G04 #@! TO.N,VCC*
X119840000Y-64500000D03*
G04 #@! TD*
D13*
G04 #@! TO.P,R3,1*
G04 #@! TO.N,/A13*
X130000000Y-57500000D03*
D11*
G04 #@! TO.P,R3,2*
G04 #@! TO.N,VCC*
X119840000Y-57500000D03*
G04 #@! TD*
D14*
G04 #@! TO.N,VCC*
X122618200Y-74460300D03*
G04 #@! TO.N,GND*
X122998900Y-83259200D03*
G04 #@! TO.N,/D2*
X106453234Y-71945300D03*
G04 #@! TO.N,/D0*
X117637950Y-69388950D03*
G04 #@! TO.N,/A10*
X112248806Y-99348600D03*
G04 #@! TO.N,/A11*
X124402000Y-81856000D03*
G04 #@! TO.N,/{slash}PGM*
X124397600Y-74473100D03*
G04 #@! TO.N,/A13*
X125902900Y-77858200D03*
G04 #@! TD*
D15*
G04 #@! TO.N,VCC*
X109228529Y-64548471D02*
X119791529Y-64548471D01*
X119193900Y-74460300D02*
X122618200Y-74460300D01*
X107910700Y-85743500D02*
X119193900Y-74460300D01*
X119791529Y-64548471D02*
X119840000Y-64500000D01*
X107910700Y-97544300D02*
X107910700Y-85743500D01*
X119742800Y-109376400D02*
X107910700Y-97544300D01*
X88828300Y-79548600D02*
X94228400Y-79548600D01*
X94228400Y-79548600D02*
X109228529Y-64548471D01*
G04 #@! TO.N,GND*
X119742800Y-94136400D02*
X121442900Y-92436300D01*
X141375600Y-55788600D02*
X145752600Y-60165600D01*
X147452700Y-62705600D02*
X147452700Y-61005500D01*
X88828300Y-55788600D02*
X141375600Y-55788600D01*
X147452700Y-65245600D02*
X147452700Y-62705600D01*
X147442600Y-61005500D02*
X147452700Y-61005500D01*
X147452700Y-60165600D02*
X146602700Y-60165600D01*
X122998900Y-87500400D02*
X122998900Y-83259200D01*
X145752600Y-60165600D02*
X146602700Y-60165600D01*
X119742800Y-89056400D02*
X121442900Y-89056400D01*
X146602700Y-60165600D02*
X147442600Y-61005500D01*
X121442900Y-89056400D02*
X122998900Y-87500400D01*
X121442900Y-92436300D02*
X121442900Y-89056400D01*
G04 #@! TO.N,/D2*
X110411708Y-67986826D02*
X127083372Y-67986826D01*
X127083372Y-67986826D02*
X133282700Y-74186154D01*
X133282700Y-78896400D02*
X134982800Y-78896400D01*
X133282700Y-74186154D02*
X133282700Y-78896400D01*
X106453234Y-71945300D02*
X110411708Y-67986826D01*
G04 #@! TO.N,/D0*
X131632400Y-80626000D02*
X134982800Y-83976400D01*
X117689291Y-69337609D02*
X126346582Y-69337609D01*
X131632400Y-74623427D02*
X131632400Y-80626000D01*
X117637950Y-69388950D02*
X117689291Y-69337609D01*
X126346582Y-69337609D02*
X131632400Y-74623427D01*
G04 #@! TO.N,/A10*
X112248806Y-99348600D02*
X112248806Y-99090394D01*
X112248806Y-99090394D02*
X119742800Y-91596400D01*
G04 #@! TO.N,/A11*
X119742800Y-96676400D02*
X124402000Y-92017200D01*
X124402000Y-92017200D02*
X124402000Y-81856000D01*
G04 #@! TO.N,/{slash}PGM*
X127203100Y-98750900D02*
X121442900Y-104511100D01*
X127203100Y-77278600D02*
X127203100Y-98750900D01*
X124397600Y-74473100D02*
X127203100Y-77278600D01*
X121442900Y-104511100D02*
X121442900Y-105136300D01*
X121442900Y-105136300D02*
X119742800Y-106836400D01*
G04 #@! TO.N,/VPP*
X139259914Y-58765600D02*
X139217870Y-58807644D01*
X140405486Y-58765600D02*
X139259914Y-58765600D01*
X139217870Y-58807644D02*
X89769256Y-58807644D01*
X89769256Y-58807644D02*
X88828300Y-59748600D01*
X134982800Y-109376400D02*
X143241601Y-101117599D01*
X143241601Y-101117599D02*
X143241601Y-61601715D01*
X143241601Y-61601715D02*
X140405486Y-58765600D01*
G04 #@! TO.N,/A0*
X130091934Y-76214321D02*
X125057198Y-71179585D01*
X130091934Y-81625534D02*
X130091934Y-76214321D01*
X114680730Y-71179585D02*
X94431715Y-91428600D01*
X125057198Y-71179585D02*
X114680730Y-71179585D01*
X134982800Y-86516400D02*
X130091934Y-81625534D01*
X94431715Y-91428600D02*
X88828300Y-91428600D01*
G04 #@! TO.N,/A1*
X88828300Y-95388600D02*
X94228400Y-95388600D01*
X116456800Y-73160200D02*
X94228400Y-95388600D01*
X128631100Y-76793700D02*
X124997600Y-73160200D01*
X128631100Y-82704700D02*
X128631100Y-76793700D01*
X134982800Y-89056400D02*
X128631100Y-82704700D01*
X124997600Y-73160200D02*
X116456800Y-73160200D01*
G04 #@! TO.N,/A2*
X105838715Y-111100900D02*
X120476300Y-111100900D01*
X131200500Y-96752600D02*
X131200500Y-93678600D01*
X120476300Y-111100900D02*
X124693400Y-106883800D01*
X131200500Y-93678600D02*
X133282700Y-91596400D01*
X94086415Y-99348600D02*
X105838715Y-111100900D01*
X124693400Y-103259700D02*
X131200500Y-96752600D01*
X133282700Y-91596400D02*
X134982800Y-91596400D01*
X88828300Y-99348600D02*
X94086415Y-99348600D01*
X124693400Y-106883800D02*
X124693400Y-103259700D01*
G04 #@! TO.N,/A3*
X121044000Y-112425500D02*
X126643400Y-106826100D01*
X126643400Y-106826100D02*
X126643400Y-103148400D01*
X133282700Y-96509100D02*
X133282700Y-94136400D01*
X103295164Y-112425500D02*
X121044000Y-112425500D01*
X94228400Y-103308600D02*
X94228400Y-103358736D01*
X133282700Y-94136400D02*
X134982800Y-94136400D01*
X88828300Y-103308600D02*
X94228400Y-103308600D01*
X94228400Y-103358736D02*
X103295164Y-112425500D01*
X126643400Y-103148400D02*
X133282700Y-96509100D01*
G04 #@! TO.N,/A4*
X88828300Y-107268600D02*
X93533323Y-107268600D01*
X127943500Y-107364700D02*
X127943500Y-103715700D01*
X100027923Y-113763200D02*
X121545000Y-113763200D01*
X93533323Y-107268600D02*
X100027923Y-113763200D01*
X127943500Y-103715700D02*
X134982800Y-96676400D01*
X121545000Y-113763200D02*
X127943500Y-107364700D01*
G04 #@! TO.N,/A5*
X88828300Y-111228600D02*
X94228400Y-111228600D01*
X98063200Y-115063400D02*
X122112400Y-115063400D01*
X122112400Y-115063400D02*
X129243600Y-107932200D01*
X129243600Y-104955600D02*
X134982800Y-99216400D01*
X94228400Y-111228600D02*
X98063200Y-115063400D01*
X129243600Y-107932200D02*
X129243600Y-104955600D01*
G04 #@! TO.N,/A6*
X130543800Y-108473300D02*
X130543800Y-106195400D01*
X122626300Y-116390800D02*
X130543800Y-108473300D01*
X94228400Y-115188600D02*
X95430600Y-116390800D01*
X130543800Y-106195400D02*
X134982800Y-101756400D01*
X95430600Y-116390800D02*
X122626300Y-116390800D01*
X88828300Y-115188600D02*
X94228400Y-115188600D01*
G04 #@! TO.N,/A12*
X134982800Y-106836400D02*
X141768020Y-100051180D01*
X141768020Y-100051180D02*
X141768020Y-64640920D01*
X141768020Y-64640920D02*
X139832700Y-62705600D01*
G04 #@! TO.N,/A13*
X125902900Y-98136300D02*
X125902900Y-77858200D01*
X119742800Y-104296400D02*
X125902900Y-98136300D01*
G04 #@! TD*
M02*
