M48
; DRILL file {KiCad 7.0.8} date Mon Mar  4 21:00:35 2024
; FORMAT={-:-/ absolute / inch / decimal}
; #@! TF.CreationDate,2024-03-04T21:00:35+02:00
; #@! TF.GenerationSoftware,Kicad,Pcbnew,7.0.8
; #@! TF.FileFunction,Plated,1,2,PTH
FMAT,2
INCH
; #@! TA.AperFunction,Plated,PTH,ViaDrill
T1C0.0157
; #@! TA.AperFunction,Plated,PTH,ComponentDrill
T2C0.0315
%
G90
G05
T1
X4.0677Y-2.4935
X4.1911Y-2.8325
X4.4362Y-2.6652
X4.4775Y-2.9006
X4.5847Y-3.8408
X4.7152Y-2.8418
X4.8229Y-3.2734
X4.8293Y-2.8715
X4.835Y-2.4706
X4.8631Y-3.5465
X4.9175Y-3.2006
X4.9772Y-3.0621
T2
X4.7143Y-3.0062
X4.7143Y-3.1062
X4.7143Y-3.2062
X4.7143Y-3.3062
X4.7143Y-3.4062
X4.7143Y-3.5062
X4.7143Y-3.6062
X4.7143Y-3.7062
X4.7143Y-3.8062
X4.7143Y-3.9062
X4.7143Y-4.0062
X4.7143Y-4.1062
X4.7143Y-4.2062
X4.7143Y-4.3062
X4.7181Y-2.2638
X4.7181Y-2.4016
X4.7181Y-2.5394
X5.1181Y-2.2638
X5.1181Y-2.4016
X5.1181Y-2.5394
X5.3143Y-3.0062
X5.3143Y-3.1062
X5.3143Y-3.2062
X5.3143Y-3.3062
X5.3143Y-3.4062
X5.3143Y-3.5062
X5.3143Y-3.6062
X5.3143Y-3.7062
X5.3143Y-3.8062
X5.3143Y-3.9062
X5.3143Y-4.0062
X5.3143Y-4.1062
X5.3143Y-4.2062
X5.3143Y-4.3062
X5.5052Y-2.3687
X5.5052Y-2.4687
X5.5052Y-2.5687
X5.8052Y-2.3687
X5.8052Y-2.4687
X5.8052Y-2.5687
T0
M30
