G04 #@! TF.GenerationSoftware,KiCad,Pcbnew,7.0.8*
G04 #@! TF.CreationDate,2024-03-04T19:11:00+02:00*
G04 #@! TF.ProjectId,radofin,7261646f-6669-46e2-9e6b-696361645f70,rev?*
G04 #@! TF.SameCoordinates,Original*
G04 #@! TF.FileFunction,Soldermask,Top*
G04 #@! TF.FilePolarity,Negative*
%FSLAX46Y46*%
G04 Gerber Fmt 4.6, Leading zero omitted, Abs format (unit mm)*
G04 Created by KiCad (PCBNEW 7.0.8) date 2024-03-04 19:11:00*
%MOMM*%
%LPD*%
G01*
G04 APERTURE LIST*
%ADD10R,1.600000X1.600000*%
%ADD11O,1.600000X1.600000*%
%ADD12R,9.000000X2.400000*%
%ADD13C,1.600000*%
G04 APERTURE END LIST*
D10*
G04 #@! TO.C,U1*
X134982800Y-109376400D03*
D11*
X134982800Y-106836400D03*
X134982800Y-104296400D03*
X134982800Y-101756400D03*
X134982800Y-99216400D03*
X134982800Y-96676400D03*
X134982800Y-94136400D03*
X134982800Y-91596400D03*
X134982800Y-89056400D03*
X134982800Y-86516400D03*
X134982800Y-83976400D03*
X134982800Y-81436400D03*
X134982800Y-78896400D03*
X134982800Y-76356400D03*
X119742800Y-76356400D03*
X119742800Y-78896400D03*
X119742800Y-81436400D03*
X119742800Y-83976400D03*
X119742800Y-86516400D03*
X119742800Y-89056400D03*
X119742800Y-91596400D03*
X119742800Y-94136400D03*
X119742800Y-96676400D03*
X119742800Y-99216400D03*
X119742800Y-101756400D03*
X119742800Y-104296400D03*
X119742800Y-106836400D03*
X119742800Y-109376400D03*
G04 #@! TD*
D12*
G04 #@! TO.C,J1*
X88828300Y-115188600D03*
X88828300Y-111228600D03*
X88828300Y-107268600D03*
X88828300Y-103308600D03*
X88828300Y-99348600D03*
X88828300Y-95388600D03*
X88828300Y-91428600D03*
X88828300Y-87468600D03*
X88828300Y-83508600D03*
X88828300Y-79548600D03*
X88828300Y-75588600D03*
X88828300Y-71628600D03*
X88828300Y-67668600D03*
X88828300Y-63708600D03*
X88828300Y-59748600D03*
X88828300Y-55788600D03*
G04 #@! TD*
D10*
G04 #@! TO.C,SW2*
X147452700Y-65245600D03*
D11*
X147452700Y-62705600D03*
X147452700Y-60165600D03*
X139832700Y-60165600D03*
X139832700Y-62705600D03*
X139832700Y-65245600D03*
G04 #@! TD*
D13*
G04 #@! TO.C,R2*
X130000000Y-61000000D03*
D11*
X119840000Y-61000000D03*
G04 #@! TD*
D13*
G04 #@! TO.C,R1*
X130000000Y-64500000D03*
D11*
X119840000Y-64500000D03*
G04 #@! TD*
D13*
G04 #@! TO.C,R3*
X130000000Y-57500000D03*
D11*
X119840000Y-57500000D03*
G04 #@! TD*
M02*
